<?xml version="1.0" encoding="UTF-8" standalone="no"?>
<svg
   width="1920"
   height="300"
   viewBox="0 0 508.00001 79.375002"
   version="1.1"
   id="svg8"
   xml:space="preserve"
   xmlns="http://www.w3.org/2000/svg"
   xmlns:svg="http://www.w3.org/2000/svg"
   xmlns:rdf="http://www.w3.org/1999/02/22-rdf-syntax-ns#"
   xmlns:cc="http://creativecommons.org/ns#"
   xmlns:dc="http://purl.org/dc/elements/1.1/"><defs
     id="defs2" /><metadata
     id="metadata5"><rdf:RDF><cc:Work
         rdf:about=""><dc:format>image/svg+xml</dc:format><dc:type
           rdf:resource="http://purl.org/dc/dcmitype/StillImage" /></cc:Work></rdf:RDF></metadata><g
     id="layer1"><g
       id="g1"
       transform="translate(12.198136,8.800585)"><g
         id="g924"
         style="stroke:#c44343;stroke-width:7;stroke-dasharray:none;stroke-opacity:1"
         transform="matrix(0.52535838,0,0,0.52535838,177.7755,-0.84915981)"><path
           style="fill:none;stroke:#c44343;stroke-width:7;stroke-linecap:round;stroke-linejoin:miter;stroke-miterlimit:4;stroke-dasharray:none;stroke-opacity:1"
           d="m -329.04526,109.41796 c 18.95418,-35.440061 51.13159,-99.424252 69.2361,-99.396373 17.22026,-0.506783 33.73106,91.378863 60.79441,99.682673 16.94218,3.37733 32.19131,-70.448832 89.81202,-92.950933 16.98364,-7.09296 88.86825,-22.160671 99.91259,13.765555 9.18118,27.373457 -101.02147,58.979007 -91.52991,72.695528 13.86901,18.50012 62.72237,-2.79199 93.32005,-16.485491"
           id="path961" /><path
           style="fill:none;stroke:#c44343;stroke-width:7;stroke-linecap:round;stroke-linejoin:miter;stroke-miterlimit:4;stroke-dasharray:none;stroke-opacity:1"
           d="m -281.13564,75.507079 c 9.65297,-3.13815 19.30595,-3.50086 28.95892,0"
           id="path963" /><path
           style="fill:none;stroke:#c44343;stroke-width:7;stroke-linecap:round;stroke-linejoin:miter;stroke-miterlimit:4;stroke-dasharray:none;stroke-opacity:1"
           d="m -145.56491,68.857199 c 6.82326,-4.57526 29.90075,-16.95209 49.40103,-15.65187"
           id="path965" /><path
           style="fill:none;stroke:#c44343;stroke-width:7;stroke-linecap:round;stroke-linejoin:miter;stroke-miterlimit:4;stroke-dasharray:none;stroke-opacity:1"
           d="m -172.03549,108.06713 c 6.82326,-4.57526 29.90075,-16.952091 49.40103,-15.651871"
           id="path967" /></g><path
         style="fill:none;stroke:#c44343;stroke-width:3.67752;stroke-linecap:round;stroke-linejoin:miter;stroke-miterlimit:4;stroke-dasharray:none;stroke-opacity:1"
         d="m 193.88059,40.578107 c -0.47298,10.589232 16.47454,25.301646 27.22423,10.153022 10.74969,-15.14862 -8.40458,-28.802999 -5.51981,-39.487227 2.88478,-10.68422927 24.9966,-13.7402914 34.46315,-1.2861038 9.46655,12.4541928 -8.06382,46.9737268 -8.06382,46.9737268"
         id="path1425" /><path
         style="fill:none;stroke:#c44343;stroke-width:3.67752;stroke-linecap:round;stroke-linejoin:miter;stroke-miterlimit:4;stroke-dasharray:none;stroke-opacity:1"
         d="m 257.59954,31.603808 c 23.21483,0.810607 29.37121,-15.021882 24.88485,-29.2377063"
         id="path1427" /><path
         style="fill:none;stroke:#c44343;stroke-width:3.67752;stroke-linecap:round;stroke-linejoin:miter;stroke-miterlimit:4;stroke-dasharray:none;stroke-opacity:1"
         d="m 279.99734,30.976467 c -4.94836,6.95421 -11.00338,29.181267 6.2008,25.68173 25.06356,-6.886536 2.53963,-55.5940857 27.79782,-54.8633069 25.25822,0.730784 1.74363,54.3824349 24.1432,55.5962449 15.63002,0.947728 16.77866,-48.254241 33.13962,-54.5427596 16.57631,-5.0362219 31.67071,10.2019866 28.02227,19.6989266 -4.09321,7.643423 -12.81934,5.326913 -15.49616,13.926142 -5.03647,9.5414 20.11313,32.217942 36.67293,12.739963 4.74236,-5.704554 4.6998,-36.116088 1.05146,-42.7596074 -3.04416,-3.7643766 -6.06167,-5.52777871 -11.99683,-4.6855084"
         id="path1429" /><path
         style="fill:none;stroke:#c44343;stroke-width:3.67752;stroke-linecap:round;stroke-linejoin:miter;stroke-miterlimit:4;stroke-dasharray:none;stroke-opacity:1"
         d="m 305.40825,32.02794 c 4.30479,-3.493191 11.49386,-3.12243 15.4875,-0.609069"
         id="path1439" /><path
         style="fill:none;stroke:#c44343;stroke-width:3.67752;stroke-linecap:round;stroke-linejoin:miter;stroke-miterlimit:4;stroke-dasharray:none;stroke-opacity:1"
         d="M 467.28727,60.513106 C 460.48361,44.364668 441.64181,53.917265 435.35416,48.758231 429.0665,43.599196 430.72861,11.56779 434.54368,5.9239126 c 3.81507,-5.64387238 30.61508,-7.1337309 38.3095,1.0403515 9.21251,9.7868009 6.09805,34.7375099 0.41924,42.3744449 -5.28875,5.23512 -15.10275,-1.600676 -15.48455,-10.156795"
         id="path1449" /><path
         style="fill:none;stroke:#c44343;stroke-width:3.67752;stroke-linecap:round;stroke-linejoin:miter;stroke-miterlimit:4;stroke-dasharray:none;stroke-opacity:1"
         d="m 362.48055,31.412625 c 5.53617,-3.829143 13.41346,-2.70547 16.20824,1.248567"
         id="path1502" /></g></g></svg>
