<?xml version="1.0" encoding="UTF-8" standalone="no"?>
<!-- Created with Inkscape (http://www.inkscape.org/) -->

<svg
   width="32"
   height="32"
   viewBox="0 0 8.4666667 8.466672"
   version="1.1"
   id="svg1"
   inkscape:version="1.4.3 (0d15f75042, 2025-12-25)"
   sodipodi:docname="favicon.svg"
   xmlns:inkscape="http://www.inkscape.org/namespaces/inkscape"
   xmlns:sodipodi="http://sodipodi.sourceforge.net/DTD/sodipodi-0.dtd"
   xmlns="http://www.w3.org/2000/svg"
   xmlns:svg="http://www.w3.org/2000/svg">
  <sodipodi:namedview
     id="namedview1"
     pagecolor="#000000"
     bordercolor="#ffffff"
     borderopacity="0.24705882"
     inkscape:showpageshadow="2"
     inkscape:pageopacity="0.0"
     inkscape:pagecheckerboard="0"
     inkscape:deskcolor="#d1d1d1"
     inkscape:document-units="mm"
     inkscape:zoom="17.84375"
     inkscape:cx="12.917688"
     inkscape:cy="15.887916"
     inkscape:window-width="1536"
     inkscape:window-height="779"
     inkscape:window-x="0"
     inkscape:window-y="0"
     inkscape:window-maximized="1"
     inkscape:current-layer="layer1"
     showguides="false" />
  <defs
     id="defs1">
    <inkscape:path-effect
       effect="powerstroke"
       message=""
       id="path-effect4"
       is_visible="true"
       lpeversion="1.3"
       scale_width="1"
       interpolator_type="CentripetalCatmullRom"
       interpolator_beta="0.2"
       start_linecap_type="zerowidth"
       end_linecap_type="zerowidth"
       offset_points="0.18966087,0.65315982 | 1.5002783,0.16095502 | 2.7958861,0.65236318"
       linejoin_type="round"
       miter_limit="4"
       not_jump="false"
       sort_points="true" />
    <inkscape:path-effect
       effect="powerstroke"
       message=""
       id="path-effect3"
       is_visible="true"
       lpeversion="1.3"
       scale_width="1"
       interpolator_type="CentripetalCatmullRom"
       interpolator_beta="0.2"
       start_linecap_type="zerowidth"
       end_linecap_type="zerowidth"
       offset_points="0.20859089,0.58813843 | 1.0053694,0.11920342 | 1.8044081,0.56510295"
       linejoin_type="round"
       miter_limit="4"
       not_jump="false"
       sort_points="true" />
    <inkscape:path-effect
       effect="fillet_chamfer"
       id="path-effect2"
       is_visible="true"
       lpeversion="1"
       nodesatellites_param="F,0,0,1,0,0,0,1 @ F,0,0,1,0,0,0,1 @ F,0,0,1,0,0,0,1 @ F,0,0,1,0,0,0,1"
       radius="0"
       unit="px"
       method="auto"
       mode="F"
       chamfer_steps="1"
       flexible="false"
       use_knot_distance="true"
       apply_no_radius="true"
       apply_with_radius="true"
       only_selected="false"
       hide_knots="false" />
    <inkscape:path-effect
       effect="fillet_chamfer"
       id="path-effect1"
       is_visible="true"
       lpeversion="1"
       nodesatellites_param="F,0,0,1,0,0,0,1 @ F,0,0,1,0,0,0,1 @ F,0,0,1,0,6.2557735,0,1 @ F,0,0,1,0,0,0,1 @ F,0,0,1,0,0,0,1 @ F,0,0,1,0,0,0,1 @ F,0,0,1,0,0,0,1"
       radius="0"
       unit="px"
       method="auto"
       mode="F"
       chamfer_steps="1"
       flexible="false"
       use_knot_distance="true"
       apply_no_radius="true"
       apply_with_radius="true"
       only_selected="false"
       hide_knots="false" />
  </defs>
  <g
     inkscape:label="Layer 1"
     inkscape:groupmode="layer"
     id="layer1">
    <path
       style="fill:#00e5ff;fill-opacity:0.75;fill-rule:nonzero;stroke:none;stroke-width:0.8;stroke-linecap:round;stroke-linejoin:round;stroke-dasharray:none"
       d="M 0.54862814,6.628021 C 0.65605812,6.633377 1.0293377,6.5733101 1.1873587,5.9762756 1.2077846,5.8991027 1.2251449,5.8107214 1.240538,5.7099678 1.3123866,5.239691 1.3398215,4.4697533 1.4344589,3.5864232 1.4750296,3.2077433 1.5277258,2.8159108 1.6004402,2.4406185 1.6711831,2.0755013 1.7597328,1.7320863 1.8717441,1.435069 1.9277153,1.2866514 1.989023,1.1512169 2.0561106,1.0310692 2.1241155,0.90927892 2.197522,0.80416356 2.2765044,0.7173783 c 0.08083,-0.0888154 0.1670151,-0.15789294 0.2584129,-0.20603373 0.094671,-0.0498647 0.1949129,-0.0772331 0.2999468,-0.0806218 0.00975,-3.0986e-4 0.019411,-4.8418e-4 0.02899,-5.2543e-4 0.1000845,-4.3097e-4 0.1950485,0.0136358 0.2838688,0.0410853 0.093522,0.0289027 0.1791961,0.0723054 0.2568982,0.12815111 0.1501803,0.10793678 0.2687529,0.2608921 0.3612674,0.44405899 0.091402,0.1809636 0.1566366,0.3898443 0.2028637,0.6111972 0.047401,0.226974 0.074209,0.4640183 0.089639,0.6934564 0.035762,0.5317467 0.011448,0.9971202 0.043486,1.2836725 0.00914,0.081782 0.022621,0.1503687 0.042682,0.2076379 0.1131116,0.3229058 0.4697299,0.3693909 0.5706775,0.3716349 0.095034,0.00211 0.4705573,-0.0361 0.5586893,-0.4151798 C 5.2892167,3.730141 5.2959377,3.6514529 5.2944142,3.5589002 5.2893248,3.2497287 5.1833546,2.7124657 4.9670752,2.1401813 4.8732531,1.8919241 4.7577452,1.6361469 4.6193054,1.3958445 4.4839194,1.160843 4.3279434,0.94291975 4.1496922,0.75951679 3.968242,0.57282227 3.7700868,0.42834904 3.5531129,0.33232006 3.4413802,0.28286904 3.3266568,0.24711948 3.2083547,0.2240692 3.0961315,0.20220336 2.9813875,0.19189652 2.8634987,0.19179078 2.852196,0.19178064 2.8408139,0.19186414 2.8293504,0.19204431 2.6930792,0.19422844 2.559778,0.21918678 2.428443,0.26830652 2.3018682,0.31564593 2.1791206,0.38469646 2.0597866,0.47436928 1.9433701,0.56184986 1.8311405,0.66825996 1.722954,0.79137625 1.6162485,0.91280728 1.5139436,1.0499612 1.415996,1.2000634 1.2202396,1.5000552 1.0436911,1.8490314 0.88658575,2.2194132 0.72522891,2.5998181 0.58529609,3.0007147 0.46815417,3.3871296 0.19577729,4.2856168 0.04179984,5.1098284 0.01600969,5.5849305 0.01022092,5.6915702 0.01015746,5.7861849 0.01594171,5.8694606 0.06108147,6.5193373 0.44996954,6.6231023 0.54862814,6.628021 Z"
       id="path1"
       sodipodi:nodetypes="czc"
       inkscape:path-effect="#path-effect3"
       inkscape:original-d="m 0.54862814,6.628021 c 0,0 0.31264938,-6.27110692 2.28347936,-6.31663746 1.9708299,-0.0455305 1.8831289,3.89970806 1.8831289,3.89970806"
       transform="translate(0.02198494,-0.08840059)" />
    <path
       style="fill:#00e5ff;fill-opacity:0.75;fill-rule:nonzero;stroke:none;stroke-width:0.799999;stroke-linecap:round;stroke-linejoin:round;stroke-dasharray:none"
       d="m 2.9507297,2.5948629 c 0.047764,0.097822 0.2414034,0.4528432 0.6230473,0.4323803 0.071287,-0.00382 0.1540286,-0.019685 0.2524444,-0.04738 0.318066,-0.089505 0.718965,-0.2732919 1.309914,-0.5032349 C 5.366181,2.3871159 5.6097784,2.2973604 5.8521915,2.220314 6.0806788,2.1476936 6.3013206,2.0885469 6.5045619,2.0507676 6.7016416,2.0141336 6.866209,2.0006425 6.9996128,2.007199 c 0.063948,0.00314 0.1190905,0.010833 0.1653419,0.022018 0.045417,0.010984 0.086632,0.026314 0.1226216,0.048687 0.024513,0.019053 0.043253,0.03581 0.05607,0.04795 0.012714,0.012042 0.023749,0.023381 0.031413,0.03391 0.00827,0.011355 0.015036,0.024661 0.018479,0.043672 0.00347,0.019146 0.00329,0.043591 -0.00306,0.074015 C 7.3774233,2.3399944 7.3402975,2.418504 7.2742913,2.5097951 7.2080494,2.601412 7.1178849,2.6989523 7.0070675,2.8007888 6.7792274,3.0101641 6.4764591,3.226559 6.143365,3.4418395 5.7961905,3.6662202 5.4027905,3.8976552 5.0357073,4.1115878 4.6678623,4.3259531 4.2584936,4.5618253 3.8858178,4.797767 3.5278436,5.0244012 3.1754828,5.2683558 2.8815708,5.5276694 2.7374791,5.6547992 2.603707,5.7888299 2.488074,5.9303136 2.3736982,6.0702592 2.2742453,6.220918 2.2002349,6.3834194 2.1263524,6.5456402 2.0774081,6.7206563 2.0651942,6.9080911 c -0.012229,0.1876685 0.012894,0.3804874 0.079037,0.575866 0.04774,0.1513557 0.124643,0.287464 0.2292964,0.4054321 0.1045939,0.1179009 0.2301832,0.2101467 0.3661808,0.2810468 0.1366147,0.071222 0.2839945,0.1211029 0.4338599,0.1552742 0.152234,0.034711 0.310961,0.054115 0.470754,0.06234 0.3288568,0.016927 0.6781497,-0.012721 1.0153978,-0.065583 C 5.0209959,8.265839 5.3821986,8.1803816 5.7122027,8.0865787 6.5183694,7.8574276 7.1782539,7.5717933 7.5253705,7.3661282 7.6159746,7.3124457 7.6916578,7.2610655 7.7536715,7.2115139 8.2049587,6.8509157 8.0555282,6.4544328 8.0070051,6.3611207 7.9568428,6.2646565 7.7296882,5.9274318 7.1976446,6.0311983 7.1238657,6.0455877 7.0409222,6.0681723 6.9465987,6.0989352 6.5658486,6.2231139 5.977718,6.4968118 5.2703759,6.7796267 4.980863,6.8953819 4.6771037,7.0093131 4.3807493,7.1033716 4.1012284,7.1920875 3.8390805,7.2596622 3.606612,7.2966328 3.4950055,7.3143821 3.3951202,7.3242894 3.3064196,7.3271224 3.2191731,7.329909 3.1468241,7.3257124 3.0874032,7.3171781 3.030372,7.308987 2.9825449,7.2964408 2.9454195,7.2802473 2.9080986,7.2639686 2.8710192,7.2396917 2.8379056,7.1955519 2.7820266,7.0967616 2.7486772,7.000536 2.7350581,6.9041359 2.7212778,6.806595 2.7268897,6.7029814 2.7555245,6.5910628 2.7844672,6.4779408 2.8363317,6.3589143 2.9116465,6.2347651 2.9876597,6.1094648 3.0853413,5.9825893 3.2016278,5.8551495 3.4406454,5.5932072 3.7493634,5.3384984 4.087136,5.0971784 4.4401513,4.8449682 4.8269926,4.6059731 5.1952516,4.3911953 5.5682467,4.173719 5.9587827,3.9604963 6.3300542,3.7504247 6.6763475,3.5544863 7.018241,3.3539296 7.2940601,3.1575196 7.4294408,3.0611155 7.5559684,2.9608206 7.6637785,2.8566925 7.7696309,2.7544551 7.8660925,2.640327 7.9346759,2.5123904 7.9692275,2.4479372 7.9976311,2.3782825 8.0161681,2.3034004 8.0347482,2.228344 8.043065,2.1493774 8.0383834,2.0674113 8.0337053,1.9855076 8.0162527,1.9042992 7.9865995,1.8248564 7.9570833,1.7457806 7.9162783,1.6705575 7.8664226,1.5993871 7.7920675,1.4875367 7.6993621,1.3921362 7.5934424,1.3122113 7.4875342,1.232295 7.3705493,1.1694249 7.2486253,1.12034 7.0026657,1.02132 6.7282713,0.97498098 6.4569988,0.95955067 6.1735322,0.94342675 5.878948,0.96024268 5.5964037,0.99459296 5.2946826,1.0312747 4.9975493,1.0890752 4.7278347,1.1539549 4.0722284,1.3116607 3.5494313,1.51456 3.2720378,1.6724476 3.1757183,1.727271 3.1009341,1.7803247 3.0451279,1.8326717 2.74756,2.1117943 2.9046822,2.5005576 2.9507297,2.5948629 Z"
       id="path2"
       sodipodi:nodetypes="cssc"
       inkscape:path-effect="#path-effect2;#path-effect4"
       inkscape:original-d="m 2.9507297,2.5948629 c 0,0 3.7412577,-1.82678425 4.6262696,-0.7562173 C 8.7759941,3.2890262 1.5126876,4.9865534 2.4910684,7.3397548 3.1370744,8.8935283 8.0070051,6.3611207 8.0070051,6.3611207" />
  </g>
</svg>
