<?xml version="1.0" encoding="UTF-8" standalone="no"?>
<!-- Created with Inkscape (http://www.inkscape.org/) -->

<svg
   width="32"
   height="32"
   viewBox="0 0 8.4666667 8.466672"
   version="1.1"
   id="svg1"
   inkscape:version="1.4.3 (0d15f75042, 2025-12-25)"
   sodipodi:docname="favicon.svg"
   xmlns:inkscape="http://www.inkscape.org/namespaces/inkscape"
   xmlns:sodipodi="http://sodipodi.sourceforge.net/DTD/sodipodi-0.dtd"
   xmlns="http://www.w3.org/2000/svg"
   xmlns:svg="http://www.w3.org/2000/svg">
  <sodipodi:namedview
     id="namedview1"
     pagecolor="#000000"
     bordercolor="#ffffff"
     borderopacity="0.24705882"
     inkscape:showpageshadow="2"
     inkscape:pageopacity="0.0"
     inkscape:pagecheckerboard="0"
     inkscape:deskcolor="#d1d1d1"
     inkscape:document-units="mm"
     inkscape:zoom="17.84375"
     inkscape:cx="12.917688"
     inkscape:cy="15.887916"
     inkscape:window-width="1536"
     inkscape:window-height="779"
     inkscape:window-x="0"
     inkscape:window-y="0"
     inkscape:window-maximized="1"
     inkscape:current-layer="layer1"
     showguides="false" />
  <defs
     id="defs1">
    <inkscape:path-effect
       effect="powerstroke"
       message=""
       id="path-effect4"
       is_visible="true"
       lpeversion="1.3"
       scale_width="1"
       interpolator_type="CentripetalCatmullRom"
       interpolator_beta="0.2"
       start_linecap_type="zerowidth"
       end_linecap_type="zerowidth"
       offset_points="0.17342711,0.81941632 | 1.4958693,0.34830986 | 2.8312398,0.90665326"
       linejoin_type="round"
       miter_limit="4"
       not_jump="false"
       sort_points="true" />
    <inkscape:path-effect
       effect="powerstroke"
       message=""
       id="path-effect3"
       is_visible="true"
       lpeversion="1.3"
       scale_width="1"
       interpolator_type="CentripetalCatmullRom"
       interpolator_beta="0.2"
       start_linecap_type="zerowidth"
       end_linecap_type="zerowidth"
       offset_points="0.21148699,0.73535325 | 0.99201417,0.19139042 | 1.7940246,0.77034332"
       linejoin_type="round"
       miter_limit="4"
       not_jump="false"
       sort_points="true" />
    <inkscape:path-effect
       effect="fillet_chamfer"
       id="path-effect2"
       is_visible="true"
       lpeversion="1"
       nodesatellites_param="F,0,0,1,0,0,0,1 @ F,0,0,1,0,0,0,1 @ F,0,0,1,0,0,0,1 @ F,0,0,1,0,0,0,1"
       radius="0"
       unit="px"
       method="auto"
       mode="F"
       chamfer_steps="1"
       flexible="false"
       use_knot_distance="true"
       apply_no_radius="true"
       apply_with_radius="true"
       only_selected="false"
       hide_knots="false" />
    <inkscape:path-effect
       effect="fillet_chamfer"
       id="path-effect1"
       is_visible="true"
       lpeversion="1"
       nodesatellites_param="F,0,0,1,0,0,0,1 @ F,0,0,1,0,0,0,1 @ F,0,0,1,0,6.2557735,0,1 @ F,0,0,1,0,0,0,1 @ F,0,0,1,0,0,0,1 @ F,0,0,1,0,0,0,1 @ F,0,0,1,0,0,0,1"
       radius="0"
       unit="px"
       method="auto"
       mode="F"
       chamfer_steps="1"
       flexible="false"
       use_knot_distance="true"
       apply_no_radius="true"
       apply_with_radius="true"
       only_selected="false"
       hide_knots="false" />
  </defs>
  <g
     inkscape:label="Layer 1"
     inkscape:groupmode="layer"
     id="layer1">
    <path
       style="fill:#00b6cc;fill-opacity:1;fill-rule:nonzero;stroke:none;stroke-width:0.8;stroke-linecap:round;stroke-linejoin:round;stroke-dasharray:none"
       d="M 0.74138938,8.4518388 C 0.87634101,8.4593169 1.3409642,8.3737713 1.5439611,7.5880884 1.5683339,7.4937554 1.589325,7.3870352 1.607947,7.2668828 1.7022755,6.658261 1.7349943,5.6652038 1.8305624,4.5308228 1.8716395,4.0432423 1.9239148,3.5399587 1.9959955,3.0584593 2.0661828,2.5896081 2.1538337,2.1504863 2.2649178,1.7723671 2.3204365,1.5833873 2.3811078,1.4120604 2.4472812,1.2610404 2.514435,1.1077828 2.5862299,0.97779713 2.6623543,0.87222311 2.7403188,0.764097 2.8211407,0.68393411 2.9034312,0.63037019 c 0.073827,-0.0480551 0.1488528,-0.0747369 0.2248434,-0.0812447 0.011364,-9.7316e-4 0.022851,-0.001503 0.034473,-0.001575 0.088342,-5.516e-4 0.1852412,0.0253701 0.2901144,0.0819109 C 3.5541788,0.68408469 3.6608584,0.766173 3.7720103,0.87667026 3.9885514,1.0919362 4.2102465,1.4030613 4.4338122,1.7915707 4.6543463,2.1748116 4.8694392,2.6206022 5.075752,3.0961351 5.2875951,3.5844151 5.4862833,4.0949689 5.6692404,4.5890361 6.0950461,5.7389046 6.4170108,6.7429917 6.6837136,7.3367936 6.7445866,7.4723247 6.803124,7.5885191 6.8612955,7.6867519 7.2802787,8.3942794 7.771333,8.3345866 7.9032107,8.2887332 8.0276106,8.2454798 8.4683419,7.975639 8.3014957,7.1394507 8.2784793,7.0240983 8.2427321,6.8943105 8.194225,6.7488466 7.9815318,6.1110184 7.5103968,5.1269252 6.8704118,4.0214166 6.5961271,3.5476179 6.2925039,3.0580992 5.9756874,2.5955988 5.6667735,2.144635 5.3472342,1.7221055 5.0284918,1.3607675 4.7070783,0.99640142 4.3892433,0.69753583 4.0840791,0.4906498 3.9266779,0.38393984 3.7718119,0.30103744 3.6199163,0.24544593 3.4617694,0.18756656 3.3065392,0.1591593 3.1538911,0.16418353 c -0.019964,6.5711e-4 -0.03976,0.001883 -0.059378,0.003653 C 2.9619645,0.17979634 2.8338594,0.21701742 2.7093541,0.27821328 2.5719183,0.34576465 2.4407028,0.44164195 2.3148909,0.56140277 2.1920873,0.67830007 2.0737215,0.81864503 1.9595758,0.97878327 1.8469344,1.1368111 1.738239,1.3143512 1.6335415,1.5077743 1.424395,1.8941614 1.2322985,2.3419556 1.0590041,2.8165238 0.88113281,3.303626 0.7239498,3.8166265 0.59102328,4.3110313 0.28095167,5.4643068 0.10133688,6.4815188 0.07582625,7.119609 0.0707933,7.2454967 0.07175988,7.3583976 0.07893892,7.458908 0.13911941,8.3014682 0.61544744,8.44486 0.74138938,8.4518388 Z"
       id="path1"
       sodipodi:nodetypes="czc"
       inkscape:path-effect="#path-effect3"
       inkscape:original-d="m 0.74138938,8.4518388 c 0,0 0.44609942,-8.05044136 2.41692942,-8.0959719 1.9708299,-0.0455305 4.7448919,7.9328663 4.7448919,7.9328663"
       transform="translate(0.02198494,-0.08840059)" />
    <path
       style="fill:#00b7cc;fill-opacity:1;fill-rule:nonzero;stroke:none;stroke-width:2.52902;stroke-linecap:round;stroke-linejoin:round;stroke-dasharray:none"
       d="m 1.3569861,3.7198584 0,0 C 1.4317696,3.8331693 1.7390353,4.2306502 2.289708,4.0967511 2.4305274,4.0625101 2.600829,3.9948544 2.8152686,3.8904457 3.3170621,3.6461271 4.0806246,3.1813314 5.0067161,2.6659623 5.3903965,2.4524445 5.7970364,2.2341603 6.1974074,2.0380834 6.5763184,1.8525163 6.9410045,1.6910452 7.2725984,1.570788 7.4326801,1.5127321 7.5795011,1.4663045 7.7129305,1.4313376 7.8454357,1.396613 7.9560979,1.3754471 8.0492081,1.3635542 c 0.092678,-0.011838 0.1551795,-0.012919 0.1991045,-0.013929 0.042191,-9.704e-4 0.0607,-0.00517 0.081034,-0.0057 0.047599,0.039444 0.08252,0.074556 0.1081734,0.1041749 0.025262,0.029168 0.043985,0.055812 0.057139,0.079526 0.027425,0.049442 0.043073,0.1038777 0.029375,0.1952092 -0.01414,0.09428 -0.060817,0.2137435 -0.1519059,0.3561027 C 8.2806007,2.2219802 8.1520597,2.3760775 7.9894081,2.5385592 7.6542485,2.8733688 7.1986393,3.2199161 6.6860134,3.5633391 6.1662785,3.9115247 5.5856333,4.2579574 5.0233852,4.5799986 5.0231254,4.5801474 4.9634087,4.6142973 4.9631489,4.6144461 4.3780612,4.9485244 3.7502826,5.2912752 3.1388373,5.6383625 2.5673711,5.9627557 1.9946961,6.3002978 1.5099355,6.6341829 1.2726651,6.7976059 1.0485377,6.965491 0.8501021,7.1367485 0.65506263,7.3050751 0.4748479,7.485169 0.32911215,7.6773518 0.18486345,7.8675738 0.06151564,8.0864425 -7.3267332e-5,8.33448 -0.03109388,8.45941 -0.04618948,8.590901 -0.04038516,8.7273259 c 0.0058123,0.1366125 0.03235127,0.2723431 0.07951648,0.4051829 0.09382244,0.2647587 0.24261195,0.4987264 0.45030595,0.688727 0.20738798,0.1897202 0.45161098,0.3156132 0.70775663,0.3928922 0.255656,0.07713 0.5242724,0.106382 0.7894379,0.105483 0.2694448,-9.15e-4 0.5469842,-0.033 0.8235647,-0.08553 C 3.3781043,10.126205 3.9778637,9.9251067 4.5569847,9.6865765 5.1752548,9.4319214 5.7937424,9.1247163 6.360966,8.8149088 7.7216849,8.071708 8.8633248,7.2782328 9.4702947,6.7811457 9.7631061,6.5413433 9.9707473,6.3413368 10.107377,6.1732165 10.613683,5.5502173 10.29862,5.066971 10.210121,4.9548763 10.117093,4.8370443 9.7358423,4.431628 9.0228817,4.7199614 8.8277429,4.7988789 8.5880851,4.9306238 8.2785164,5.1238654 7.6019048,5.5462257 6.5676646,6.2908681 5.3364526,7.0708244 4.8256684,7.3943995 4.2893585,7.7166035 3.7673613,7.994198 3.2726763,8.257268 2.8086888,8.4706994 2.4002187,8.6102603 2.2034352,8.6774948 2.0301248,8.723935 1.8790087,8.7522229 1.7295168,8.7802068 1.6144674,8.7880426 1.5264744,8.7863506 1.4458628,8.7848005 1.3818637,8.7752082 1.3410669,8.7620454 1.2973102,8.7479275 1.2452397,8.7195882 1.1930206,8.6407384 1.1784562,8.6270791 1.1652068,8.6144205 1.155927,8.6011321 1.1460208,8.5869468 1.1374221,8.5679288 1.1341517,8.5392229 1.127391,8.4798816 1.1448164,8.3865363 1.2095471,8.2596026 1.2742364,8.1327502 1.3776659,7.9888408 1.5199287,7.8315746 1.6631823,7.673213 1.8393525,7.5083178 2.0423935,7.338948 2.4599685,6.9906212 2.9777695,6.6344618 3.5274139,6.2859853 4.1024181,5.9214307 4.7325466,5.552813 5.310363,5.218732 5.3110944,5.2183092 5.3699991,5.1842678 5.3707304,5.183845 5.9260122,4.8630805 6.5385348,4.5129871 7.0811889,4.1788526 7.6174313,3.8486661 8.1371461,3.5031976 8.5510023,3.1554017 8.7535583,2.985178 8.9401859,2.8066591 9.0950476,2.6202441 9.2474012,2.436848 9.3797434,2.2330688 9.4621936,2.0082211 9.5457087,1.7804696 9.5780501,1.5300909 9.5270445,1.2672787 9.5020024,1.1382468 9.4580805,1.01292 9.3968727,0.89238197 9.3359056,0.77231783 9.2587937,0.658946 9.1683928,0.55212345 9.0332417,0.38646241 8.863591,0.26539137 8.6796268,0.18081836 8.4974068,0.09704717 8.3024691,0.04948928 8.1098321,0.02526583 7.9149602,7.6135114e-4 7.7127084,-0.00109834 7.5106558,0.01219053 7.3052434,0.02570043 7.0938235,0.05528657 6.8815237,0.09612856 6.4449666,0.18011296 5.98795,0.31497248 5.5459325,0.47104762 5.0747528,0.63741981 4.6074589,0.83257713 4.1803353,1.028294 3.1499193,1.500452 2.314547,1.9889637 1.8641158,2.3179629 1.663142,2.464756 1.518583,2.5926231 1.42125,2.7069478 1.0362231,3.1591901 1.2845628,3.6101236 1.356986,3.7198583 Z"
       id="path2"
       sodipodi:nodetypes="cssc"
       inkscape:path-effect="#path-effect2;#path-effect4"
       inkscape:original-d="m 1.3569861,3.7198584 c 0,0 6.1668119,-4.07000307 7.3918835,-2.77183417 C 10.95946,3.2905152 -0.3830938,6.5421737 0.61607593,8.8866236 1.7777049,11.612268 10.210121,4.9548763 10.210121,4.9548763"
       transform="matrix(0.31632741,0,0,0.31632741,1.8991916,2.6238979)" />
  </g>
</svg>
