<?xml version="1.0" encoding="UTF-8" standalone="no"?>
<!-- Created with Inkscape (http://www.inkscape.org/) -->

<svg
   width="255.99998"
   height="255.99998"
   viewBox="0 0 67.733329 67.733329"
   version="1.1"
   id="svg1"
   inkscape:version="1.4.3 (0d15f75042, 2025-12-25)"
   sodipodi:docname="chess.svg"
   inkscape:export-filename="telecom.svg"
   inkscape:export-xdpi="192"
   inkscape:export-ydpi="192"
   xml:space="preserve"
   xmlns:inkscape="http://www.inkscape.org/namespaces/inkscape"
   xmlns:sodipodi="http://sodipodi.sourceforge.net/DTD/sodipodi-0.dtd"
   xmlns="http://www.w3.org/2000/svg"
   xmlns:svg="http://www.w3.org/2000/svg"><sodipodi:namedview
     id="namedview1"
     pagecolor="#000000"
     bordercolor="#000000"
     borderopacity="0.25"
     inkscape:showpageshadow="2"
     inkscape:pageopacity="0.0"
     inkscape:pagecheckerboard="0"
     inkscape:deskcolor="#d1d1d1"
     inkscape:document-units="mm"
     inkscape:zoom="2.3750001"
     inkscape:cx="102.94736"
     inkscape:cy="140.8421"
     inkscape:window-width="1536"
     inkscape:window-height="779"
     inkscape:window-x="0"
     inkscape:window-y="0"
     inkscape:window-maximized="1"
     inkscape:current-layer="layer4"
     showguides="true"><inkscape:page
       x="0"
       y="0"
       width="67.73333"
       height="67.73333"
       id="page2"
       margin="0"
       bleed="0" /></sodipodi:namedview><defs
     id="defs1" /><g
     inkscape:groupmode="layer"
     id="layer4"
     inkscape:label="chess"
     style="display:inline"><path
       id="rect35"
       style="fill:#00e5ff;fill-opacity:1;stroke:none;stroke-width:0.7;stroke-linecap:square;stroke-linejoin:round;stroke-dasharray:2.10001, 2.10001;stroke-dashoffset:0;stroke-opacity:1"
       d="M 33.380908 9.8913859 A 1.5970249 1.5970249 0 0 0 31.784106 11.488188 A 1.5970249 1.5970249 0 0 0 32.994885 13.037964 L 31.085441 17.756022 C 31.085441 17.756022 28.06055 16.723858 26.926005 16.390731 A 0.76065648 0.76065648 0 0 0 27.002486 16.058451 A 0.76065648 0.76065648 0 0 0 26.241809 15.297774 A 0.76065648 0.76065648 0 0 0 25.481132 16.058451 A 0.76065648 0.76065648 0 0 0 26.241809 16.819128 A 0.76065648 0.76065648 0 0 0 26.732218 16.639811 C 28.805415 20.054797 30.231406 23.531909 31.009993 27.153898 L 29.730485 27.153898 C 29.545668 27.153898 29.397172 27.30291 29.397172 27.487728 L 29.397172 28.216366 L 28.446326 28.216366 C 28.261508 28.216366 28.112496 28.365378 28.112496 28.550195 L 28.112496 29.51241 C 28.112496 29.697228 28.261508 29.84624 28.446326 29.84624 L 29.419393 29.84624 C 29.404948 29.883649 29.397172 29.924538 29.397172 29.967163 L 29.397172 30.929378 C 29.397172 31.114196 29.545668 31.263208 29.730485 31.263208 L 31.610474 31.263208 C 32.064005 36.982023 31.004847 43.111039 28.433407 49.945272 L 27.179736 49.945272 C 26.656197 49.945272 26.235091 50.366894 26.235091 50.890434 L 26.235091 53.42723 L 24.988139 53.42723 C 24.487478 53.42723 24.084318 53.829873 24.084318 54.330534 L 24.084318 56.938127 C 24.084318 57.438787 24.487478 57.841947 24.988139 57.841947 L 42.745194 57.841947 C 43.245855 57.841947 43.649015 57.438787 43.649015 56.938127 L 43.649015 54.330534 C 43.649015 53.829873 43.245855 53.42723 42.745194 53.42723 L 41.498242 53.42723 L 41.498242 50.890434 C 41.498242 50.366894 41.077136 49.945272 40.553597 49.945272 L 38.455017 49.945272 C 35.883576 43.111039 34.824936 36.982023 35.278467 31.263208 L 37.157939 31.263208 C 37.342756 31.263208 37.491768 31.114196 37.491768 30.929378 L 37.491768 29.967163 C 37.491768 29.924538 37.483476 29.883649 37.469031 29.84624 L 38.442615 29.84624 C 38.627432 29.84624 38.775928 29.697228 38.775928 29.51241 L 38.775928 28.550195 C 38.775928 28.365378 38.627432 28.216366 38.442615 28.216366 L 37.491768 28.216366 L 37.491768 27.487728 C 37.491768 27.30291 37.342756 27.153898 37.157939 27.153898 L 35.87843 27.153898 C 36.650211 23.563573 38.058091 20.115944 40.101945 16.729728 A 0.76065648 0.76065648 0 0 0 40.460063 16.819128 A 0.76065648 0.76065648 0 0 0 41.22074 16.058451 A 0.76065648 0.76065648 0 0 0 40.460063 15.297774 A 0.76065648 0.76065648 0 0 0 39.699386 16.058451 A 0.76065648 0.76065648 0 0 0 39.816174 16.463078 C 35.801534 17.725371 35.802983 17.756022 35.802983 17.756022 L 33.880619 13.005408 A 1.5970249 1.5970249 0 0 0 34.97771 11.488188 A 1.5970249 1.5970249 0 0 0 33.380908 9.8913859 z " /><path
       id="rect41"
       style="fill:#f9f9f9;fill-opacity:1;stroke:none;stroke-width:0.699999;stroke-linecap:square;stroke-linejoin:round;stroke-dasharray:2.10001, 2.10001;stroke-dashoffset:0;stroke-opacity:1"
       d="M 7.6124552 31.633728 C 6.7332949 31.633728 6.025472 32.341551 6.025472 33.220711 L 6.025472 37.14657 C 6.025472 38.02573 6.7332949 38.733553 7.6124552 38.733553 L 8.5467651 38.733553 L 8.5467651 51.104891 L 7.378361 51.104891 C 6.9316885 51.104891 6.5716919 51.464371 6.5716919 51.911043 L 6.5716919 54.075252 L 5.5081909 54.075252 C 5.0810379 54.075252 4.7371785 54.419112 4.7371785 54.846265 L 4.7371785 57.070935 C 4.7371785 57.498088 5.0810379 57.841947 5.5081909 57.841947 L 20.658171 57.841947 C 21.085324 57.841947 21.429183 57.498088 21.429183 57.070935 L 21.429183 54.846265 C 21.429183 54.419112 21.085324 54.075252 20.658171 54.075252 L 19.594153 54.075252 L 19.594153 51.911043 C 19.594153 51.464371 19.234673 51.104891 18.788 51.104891 L 17.619596 51.104891 L 17.619596 38.733553 L 18.553906 38.733553 C 19.433067 38.733553 20.140889 38.02573 20.140889 37.14657 L 20.140889 33.220711 C 20.140889 32.341551 19.433067 31.633728 18.553906 31.633728 L 18.146179 31.633728 L 18.146179 33.367472 C 18.146179 33.806738 17.792211 34.160706 17.352946 34.160706 L 15.463139 34.160706 C 15.023874 34.160706 14.669906 33.806738 14.669906 33.367472 L 14.669906 31.633728 L 11.600842 31.633728 L 11.600842 33.475993 C 11.600842 33.855358 11.294978 34.160706 10.915613 34.160706 L 9.1265747 34.160706 C 8.7472092 34.160706 8.4413452 33.855358 8.4413452 33.475993 L 8.4413452 31.633728 L 7.6124552 31.633728 z " /><path
       id="rect47"
       style="fill:#f9f9f9;fill-opacity:1;stroke:none;stroke-width:0.699999;stroke-linecap:square;stroke-linejoin:round;stroke-dasharray:2.10001, 2.10001;stroke-dashoffset:0;stroke-opacity:1"
       d="M 49.179427 31.633728 C 48.300267 31.633728 47.592444 32.341551 47.592444 33.220711 L 47.592444 37.14657 C 47.592444 38.02573 48.300267 38.733553 49.179427 38.733553 L 50.113737 38.733553 L 50.113737 51.104891 L 48.945333 51.104891 C 48.49866 51.104891 48.139181 51.464371 48.139181 51.911043 L 48.139181 54.075252 L 47.075163 54.075252 C 46.64801 54.075252 46.30415 54.419112 46.30415 54.846265 L 46.30415 57.070935 C 46.30415 57.498088 46.64801 57.841947 47.075163 57.841947 L 62.225142 57.841947 C 62.652295 57.841947 62.996155 57.498088 62.996155 57.070935 L 62.996155 54.846265 C 62.996155 54.419112 62.652295 54.075252 62.225142 54.075252 L 61.161641 54.075252 L 61.161641 51.911043 C 61.161641 51.464371 60.801645 51.104891 60.354972 51.104891 L 59.186568 51.104891 L 59.186568 38.733553 L 60.120878 38.733553 C 61.000038 38.733553 61.707861 38.02573 61.707861 37.14657 L 61.707861 33.220711 C 61.707861 32.341551 61.000038 31.633728 60.120878 31.633728 L 59.713151 31.633728 L 59.713151 33.367472 C 59.713151 33.806738 59.359183 34.160706 58.919918 34.160706 L 57.030111 34.160706 C 56.590845 34.160706 56.237394 33.806738 56.237394 33.367472 L 56.237394 31.633728 L 53.167814 31.633728 L 53.167814 33.475993 C 53.167814 33.855358 52.862467 34.160706 52.483101 34.160706 L 50.693547 34.160706 C 50.314181 34.160706 50.008834 33.855358 50.008834 33.475993 L 50.008834 31.633728 L 49.179427 31.633728 z " /></g></svg>
