<?xml version="1.0" encoding="UTF-8" standalone="no"?>
<!-- Created with Inkscape (http://www.inkscape.org/) -->

<svg
   width="650"
   height="650"
   viewBox="0 0 171.97917 171.9795"
   version="1.1"
   id="svg1"
   inkscape:version="1.4.3 (0d15f75042, 2025-12-25)"
   sodipodi:docname="hero_cloud.svg"
   inkscape:export-filename="linky.png"
   inkscape:export-xdpi="96"
   inkscape:export-ydpi="96"
   xml:space="preserve"
   xmlns:inkscape="http://www.inkscape.org/namespaces/inkscape"
   xmlns:sodipodi="http://sodipodi.sourceforge.net/DTD/sodipodi-0.dtd"
   xmlns:xlink="http://www.w3.org/1999/xlink"
   xmlns="http://www.w3.org/2000/svg"
   xmlns:svg="http://www.w3.org/2000/svg"><sodipodi:namedview
     id="namedview1"
     pagecolor="#000000"
     bordercolor="#000000"
     borderopacity="0.25"
     inkscape:showpageshadow="2"
     inkscape:pageopacity="0.0"
     inkscape:pagecheckerboard="0"
     inkscape:deskcolor="#d1d1d1"
     inkscape:document-units="mm"
     inkscape:zoom="0.73958335"
     inkscape:cx="196.73239"
     inkscape:cy="348.16901"
     inkscape:window-width="1536"
     inkscape:window-height="779"
     inkscape:window-x="0"
     inkscape:window-y="0"
     inkscape:window-maximized="1"
     inkscape:current-layer="layer2"
     showguides="false"><sodipodi:guide
       position="316.59833,50.124469"
       orientation="1,0"
       id="guide223"
       inkscape:locked="false" /></sodipodi:namedview><defs
     id="defs1"><linearGradient
       id="linearGradient10"
       inkscape:collect="always"><stop
         style="stop-color:#76e2eb;stop-opacity:0.5;"
         offset="0"
         id="stop10" /><stop
         style="stop-color:#e8706c;stop-opacity:0.5;"
         offset="1"
         id="stop11" /></linearGradient><linearGradient
       id="linearGradient59"
       inkscape:collect="always"><stop
         style="stop-color:#e96b6b;stop-opacity:1;"
         offset="0"
         id="stop60" /><stop
         style="stop-color:#cec082;stop-opacity:1;"
         offset="1"
         id="stop59" /></linearGradient><linearGradient
       id="linearGradient24"
       inkscape:collect="always"><stop
         style="stop-color:#f9f9f9;stop-opacity:1;"
         offset="0"
         id="stop24" /><stop
         style="stop-color:#61dde9;stop-opacity:1;"
         offset="1"
         id="stop25" /></linearGradient><inkscape:path-effect
       effect="fillet_chamfer"
       id="path-effect249"
       is_visible="true"
       lpeversion="1"
       nodesatellites_param="F,0,0,1,0,0,0,1 @ F,0,0,1,0,0,0,1 @ F,0,0,1,0,13.480254,0,1 @ F,0,0,1,0,16.751163,0,1 @ F,0,0,1,0,4.0695344,0,1 @ F,0,0,1,0,4.5507335,0,1 @ F,0,0,1,0,0,0,1"
       radius="0"
       unit="px"
       method="auto"
       mode="F"
       chamfer_steps="1"
       flexible="false"
       use_knot_distance="true"
       apply_no_radius="true"
       apply_with_radius="true"
       only_selected="false"
       hide_knots="false" /><inkscape:path-effect
       effect="fillet_chamfer"
       id="path-effect247"
       is_visible="true"
       lpeversion="1"
       nodesatellites_param="F,0,0,1,0,0,0,1 @ F,0,0,1,0,0,0,1 @ F,0,0,1,0,10.757927,0,1 @ F,0,0,1,0,23.538158,0,1 @ F,0,0,1,0,18.03584,0,1 @ F,0,0,1,0,0,0,1"
       radius="0"
       unit="px"
       method="auto"
       mode="F"
       chamfer_steps="1"
       flexible="false"
       use_knot_distance="true"
       apply_no_radius="true"
       apply_with_radius="true"
       only_selected="false"
       hide_knots="false" /><inkscape:path-effect
       effect="fillet_chamfer"
       id="path-effect245"
       is_visible="true"
       lpeversion="1"
       nodesatellites_param="F,0,0,1,0,0,0,1 @ F,0,0,1,0,0,0,1 @ F,0,0,1,0,5.5154884,0,1 @ F,0,0,1,0,5.358017,0,1 @ F,0,0,1,0,0,0,1"
       radius="0"
       unit="px"
       method="auto"
       mode="F"
       chamfer_steps="1"
       flexible="false"
       use_knot_distance="true"
       apply_no_radius="true"
       apply_with_radius="true"
       only_selected="false"
       hide_knots="false" /><inkscape:path-effect
       effect="fillet_chamfer"
       id="path-effect243"
       is_visible="true"
       lpeversion="1"
       nodesatellites_param="F,0,0,1,0,0,0,1 @ F,0,0,1,0,13.740335,0,1 @ F,0,0,1,0,18.512679,0,1 @ F,0,0,1,0,0,0,1"
       radius="0"
       unit="px"
       method="auto"
       mode="F"
       chamfer_steps="1"
       flexible="false"
       use_knot_distance="true"
       apply_no_radius="true"
       apply_with_radius="true"
       only_selected="false"
       hide_knots="false" /><inkscape:path-effect
       effect="fillet_chamfer"
       id="path-effect241"
       is_visible="true"
       lpeversion="1"
       nodesatellites_param="F,0,0,1,0,0,0,1 @ F,0,0,1,0,10.077737,0,1 @ F,0,0,1,0,8.3355203,0,1 @ F,0,0,1,0,2.6866658,0,1 @ F,0,1,1,0,2.6866658,0,1 @ F,0,0,1,0,0,0,1"
       radius="0"
       unit="px"
       method="auto"
       mode="F"
       chamfer_steps="1"
       flexible="false"
       use_knot_distance="true"
       apply_no_radius="true"
       apply_with_radius="true"
       only_selected="false"
       hide_knots="false" /><inkscape:path-effect
       effect="fillet_chamfer"
       id="path-effect239"
       is_visible="true"
       lpeversion="1"
       nodesatellites_param="F,0,0,1,0,0,0,1 @ F,0,0,1,0,16.180877,0,1 @ F,0,0,1,0,13.230049,0,1 @ F,0,0,1,0,0,0,1"
       radius="0"
       unit="px"
       method="auto"
       mode="F"
       chamfer_steps="1"
       flexible="false"
       use_knot_distance="true"
       apply_no_radius="true"
       apply_with_radius="true"
       only_selected="false"
       hide_knots="false" /><inkscape:path-effect
       effect="fillet_chamfer"
       id="path-effect237"
       is_visible="true"
       lpeversion="1"
       nodesatellites_param="F,0,0,1,0,0,0,1 @ F,0,0,1,0,11.923137,0,1 @ F,0,0,1,0,10.909998,0,1 @ F,0,0,1,0,0,0,1 @ F,0,0,1,0,0,0,1 @ F,0,0,1,0,12.128374,0,1 @ F,0,0,1,0,18.286095,0,1 @ F,0,0,1,0,18.261115,0,1 @ F,0,0,1,0,0,0,1"
       radius="0"
       unit="px"
       method="auto"
       mode="F"
       chamfer_steps="1"
       flexible="false"
       use_knot_distance="true"
       apply_no_radius="true"
       apply_with_radius="true"
       only_selected="false"
       hide_knots="false" /><inkscape:path-effect
       effect="fillet_chamfer"
       id="path-effect193"
       is_visible="true"
       lpeversion="1"
       nodesatellites_param="F,0,0,1,0,0,0,1 @ F,0,0,1,0,16.180877,0,1 @ F,0,0,1,0,13.230049,0,1 @ F,0,0,1,0,0,0,1"
       radius="0"
       unit="px"
       method="auto"
       mode="F"
       chamfer_steps="1"
       flexible="false"
       use_knot_distance="true"
       apply_no_radius="true"
       apply_with_radius="true"
       only_selected="false"
       hide_knots="false" /><inkscape:path-effect
       effect="fillet_chamfer"
       id="path-effect192"
       is_visible="true"
       lpeversion="1"
       nodesatellites_param="F,0,0,1,0,0,0,1 @ F,0,0,1,0,0,0,1 @ F,0,0,1,0,13.480254,0,1 @ F,0,0,1,0,16.751163,0,1 @ F,0,0,1,0,4.0695344,0,1 @ F,0,0,1,0,4.5507335,0,1 @ F,0,0,1,0,0,0,1"
       radius="0"
       unit="px"
       method="auto"
       mode="F"
       chamfer_steps="1"
       flexible="false"
       use_knot_distance="true"
       apply_no_radius="true"
       apply_with_radius="true"
       only_selected="false"
       hide_knots="false" /><inkscape:path-effect
       effect="fillet_chamfer"
       id="path-effect191"
       is_visible="true"
       lpeversion="1"
       nodesatellites_param="F,0,0,1,0,0,0,1 @ F,0,0,1,0,10.077737,0,1 @ F,0,0,1,0,8.3355203,0,1 @ F,0,0,1,0,2.6866658,0,1 @ F,0,1,1,0,2.6866658,0,1 @ F,0,0,1,0,0,0,1"
       radius="0"
       unit="px"
       method="auto"
       mode="F"
       chamfer_steps="1"
       flexible="false"
       use_knot_distance="true"
       apply_no_radius="true"
       apply_with_radius="true"
       only_selected="false"
       hide_knots="false" /><inkscape:path-effect
       effect="fillet_chamfer"
       id="path-effect190"
       is_visible="true"
       lpeversion="1"
       nodesatellites_param="F,0,0,1,0,0,0,1 @ F,0,0,1,0,0,0,1 @ F,0,0,1,0,5.5154884,0,1 @ F,0,0,1,0,5.358017,0,1 @ F,0,0,1,0,0,0,1"
       radius="0"
       unit="px"
       method="auto"
       mode="F"
       chamfer_steps="1"
       flexible="false"
       use_knot_distance="true"
       apply_no_radius="true"
       apply_with_radius="true"
       only_selected="false"
       hide_knots="false" /><inkscape:path-effect
       effect="fillet_chamfer"
       id="path-effect189"
       is_visible="true"
       lpeversion="1"
       nodesatellites_param="F,0,0,1,0,0,0,1 @ F,0,0,1,0,13.740335,0,1 @ F,0,0,1,0,18.512679,0,1 @ F,0,0,1,0,0,0,1"
       radius="0"
       unit="px"
       method="auto"
       mode="F"
       chamfer_steps="1"
       flexible="false"
       use_knot_distance="true"
       apply_no_radius="true"
       apply_with_radius="true"
       only_selected="false"
       hide_knots="false" /><inkscape:path-effect
       effect="fillet_chamfer"
       id="path-effect188"
       is_visible="true"
       lpeversion="1"
       nodesatellites_param="F,0,0,1,0,0,0,1 @ F,0,0,1,0,11.923137,0,1 @ F,0,0,1,0,10.909998,0,1 @ F,0,0,1,0,0,0,1 @ F,0,0,1,0,0,0,1 @ F,0,0,1,0,12.128374,0,1 @ F,0,0,1,0,18.286095,0,1 @ F,0,0,1,0,18.261115,0,1 @ F,0,0,1,0,0,0,1"
       radius="0"
       unit="px"
       method="auto"
       mode="F"
       chamfer_steps="1"
       flexible="false"
       use_knot_distance="true"
       apply_no_radius="true"
       apply_with_radius="true"
       only_selected="false"
       hide_knots="false" /><inkscape:path-effect
       effect="fillet_chamfer"
       id="path-effect187"
       is_visible="true"
       lpeversion="1"
       nodesatellites_param="F,0,0,1,0,0,0,1 @ F,0,0,1,0,0,0,1 @ F,0,0,1,0,10.757927,0,1 @ F,0,0,1,0,23.538158,0,1 @ F,0,0,1,0,18.03584,0,1 @ F,0,0,1,0,0,0,1"
       radius="0"
       unit="px"
       method="auto"
       mode="F"
       chamfer_steps="1"
       flexible="false"
       use_knot_distance="true"
       apply_no_radius="true"
       apply_with_radius="true"
       only_selected="false"
       hide_knots="false" /><linearGradient
       inkscape:collect="always"
       xlink:href="#linearGradient24"
       id="linearGradient25"
       x1="54.64043"
       y1="46.039623"
       x2="54.64043"
       y2="80.948784"
       gradientUnits="userSpaceOnUse" /><filter
       inkscape:collect="always"
       style="color-interpolation-filters:sRGB"
       id="filter25"
       x="-0.15701771"
       y="-0.24180366"
       width="1.3140354"
       height="1.4836073"><feGaussianBlur
         inkscape:collect="always"
         stdDeviation="4.0424324"
         id="feGaussianBlur25" /></filter><linearGradient
       inkscape:collect="always"
       xlink:href="#linearGradient24"
       id="linearGradient35"
       gradientUnits="userSpaceOnUse"
       x1="54.64043"
       y1="46.039623"
       x2="54.64043"
       y2="80.948784" /><linearGradient
       inkscape:collect="always"
       xlink:href="#linearGradient24"
       id="linearGradient40"
       gradientUnits="userSpaceOnUse"
       x1="54.64043"
       y1="46.039623"
       x2="54.64043"
       y2="80.948784" /><linearGradient
       inkscape:collect="always"
       xlink:href="#linearGradient24"
       id="linearGradient56"
       gradientUnits="userSpaceOnUse"
       x1="54.64043"
       y1="46.039623"
       x2="54.64043"
       y2="80.948784" /><linearGradient
       inkscape:collect="always"
       xlink:href="#linearGradient24"
       id="linearGradient57"
       gradientUnits="userSpaceOnUse"
       x1="54.64043"
       y1="46.039623"
       x2="54.64043"
       y2="80.948784" /><linearGradient
       inkscape:collect="always"
       xlink:href="#linearGradient24"
       id="linearGradient58"
       gradientUnits="userSpaceOnUse"
       x1="54.64043"
       y1="46.039623"
       x2="54.64043"
       y2="80.948784" /><linearGradient
       inkscape:collect="always"
       xlink:href="#linearGradient59"
       id="linearGradient212"
       x1="-167.7831"
       y1="138.44788"
       x2="-192.82535"
       y2="147.92816"
       gradientUnits="userSpaceOnUse"
       gradientTransform="matrix(0.80458089,0,0,0.80458089,-15.076294,-30.291591)" /><linearGradient
       inkscape:collect="always"
       xlink:href="#linearGradient10"
       id="linearGradient11"
       x1="58.839353"
       y1="57.700767"
       x2="133.72544"
       y2="57.700767"
       gradientUnits="userSpaceOnUse" /><linearGradient
       inkscape:collect="always"
       xlink:href="#linearGradient10"
       id="linearGradient12"
       gradientUnits="userSpaceOnUse"
       x1="58.839353"
       y1="57.700767"
       x2="133.72544"
       y2="57.700767" /><linearGradient
       inkscape:collect="always"
       xlink:href="#linearGradient10"
       id="linearGradient13"
       gradientUnits="userSpaceOnUse"
       x1="58.839353"
       y1="57.700767"
       x2="133.72544"
       y2="57.700767" /><linearGradient
       inkscape:collect="always"
       xlink:href="#linearGradient10"
       id="linearGradient14"
       gradientUnits="userSpaceOnUse"
       x1="58.839353"
       y1="57.700767"
       x2="133.72544"
       y2="57.700767" /><linearGradient
       inkscape:collect="always"
       xlink:href="#linearGradient10"
       id="linearGradient15"
       gradientUnits="userSpaceOnUse"
       x1="58.839353"
       y1="57.700767"
       x2="133.72544"
       y2="57.700767" /><linearGradient
       inkscape:collect="always"
       xlink:href="#linearGradient10"
       id="linearGradient16"
       gradientUnits="userSpaceOnUse"
       x1="58.839353"
       y1="57.700767"
       x2="133.72544"
       y2="57.700767" /><linearGradient
       inkscape:collect="always"
       xlink:href="#linearGradient10"
       id="linearGradient17"
       gradientUnits="userSpaceOnUse"
       x1="58.839353"
       y1="57.700767"
       x2="133.72544"
       y2="57.700767" /><linearGradient
       inkscape:collect="always"
       xlink:href="#linearGradient10"
       id="linearGradient18"
       gradientUnits="userSpaceOnUse"
       x1="58.839353"
       y1="57.700767"
       x2="133.72544"
       y2="57.700767" /><linearGradient
       inkscape:collect="always"
       xlink:href="#linearGradient10"
       id="linearGradient19"
       gradientUnits="userSpaceOnUse"
       x1="58.839353"
       y1="57.700767"
       x2="133.72544"
       y2="57.700767" /><linearGradient
       inkscape:collect="always"
       xlink:href="#linearGradient10"
       id="linearGradient20"
       gradientUnits="userSpaceOnUse"
       x1="58.839353"
       y1="57.700767"
       x2="133.72544"
       y2="57.700767" /><linearGradient
       inkscape:collect="always"
       xlink:href="#linearGradient10"
       id="linearGradient21"
       gradientUnits="userSpaceOnUse"
       x1="58.839353"
       y1="57.700767"
       x2="133.72544"
       y2="57.700767" /><linearGradient
       inkscape:collect="always"
       xlink:href="#linearGradient10"
       id="linearGradient22"
       gradientUnits="userSpaceOnUse"
       x1="58.839353"
       y1="57.700767"
       x2="133.72544"
       y2="57.700767" /><linearGradient
       inkscape:collect="always"
       xlink:href="#linearGradient10"
       id="linearGradient23"
       gradientUnits="userSpaceOnUse"
       x1="58.839353"
       y1="57.700767"
       x2="133.72544"
       y2="57.700767" /><linearGradient
       inkscape:collect="always"
       xlink:href="#linearGradient10"
       id="linearGradient26"
       gradientUnits="userSpaceOnUse"
       x1="58.839353"
       y1="57.700767"
       x2="133.72544"
       y2="57.700767" /><linearGradient
       inkscape:collect="always"
       xlink:href="#linearGradient10"
       id="linearGradient27"
       gradientUnits="userSpaceOnUse"
       x1="58.839353"
       y1="57.700767"
       x2="133.72544"
       y2="57.700767" /><linearGradient
       inkscape:collect="always"
       xlink:href="#linearGradient10"
       id="linearGradient28"
       gradientUnits="userSpaceOnUse"
       x1="58.839353"
       y1="57.700767"
       x2="133.72544"
       y2="57.700767" /><linearGradient
       inkscape:collect="always"
       xlink:href="#linearGradient10"
       id="linearGradient29"
       gradientUnits="userSpaceOnUse"
       x1="58.839353"
       y1="57.700767"
       x2="133.72544"
       y2="57.700767" /><linearGradient
       inkscape:collect="always"
       xlink:href="#linearGradient10"
       id="linearGradient30"
       gradientUnits="userSpaceOnUse"
       x1="58.839353"
       y1="57.700767"
       x2="133.72544"
       y2="57.700767" /><linearGradient
       inkscape:collect="always"
       xlink:href="#linearGradient10"
       id="linearGradient46"
       gradientUnits="userSpaceOnUse"
       x1="58.839353"
       y1="57.700767"
       x2="133.72544"
       y2="57.700767" /><linearGradient
       inkscape:collect="always"
       xlink:href="#linearGradient10"
       id="linearGradient47"
       gradientUnits="userSpaceOnUse"
       x1="58.839353"
       y1="57.700767"
       x2="133.72544"
       y2="57.700767" /><linearGradient
       inkscape:collect="always"
       xlink:href="#linearGradient10"
       id="linearGradient48"
       gradientUnits="userSpaceOnUse"
       x1="58.839353"
       y1="57.700767"
       x2="133.72544"
       y2="57.700767" /><linearGradient
       inkscape:collect="always"
       xlink:href="#linearGradient10"
       id="linearGradient49"
       gradientUnits="userSpaceOnUse"
       x1="58.839353"
       y1="57.700767"
       x2="133.72544"
       y2="57.700767" /><linearGradient
       inkscape:collect="always"
       xlink:href="#linearGradient10"
       id="linearGradient50"
       gradientUnits="userSpaceOnUse"
       x1="58.839353"
       y1="57.700767"
       x2="133.72544"
       y2="57.700767" /><linearGradient
       inkscape:collect="always"
       xlink:href="#linearGradient10"
       id="linearGradient51"
       gradientUnits="userSpaceOnUse"
       x1="58.839353"
       y1="57.700767"
       x2="133.72544"
       y2="57.700767" /><linearGradient
       inkscape:collect="always"
       xlink:href="#linearGradient10"
       id="linearGradient52"
       gradientUnits="userSpaceOnUse"
       x1="58.839353"
       y1="57.700767"
       x2="133.72544"
       y2="57.700767" /><linearGradient
       inkscape:collect="always"
       xlink:href="#linearGradient10"
       id="linearGradient53"
       gradientUnits="userSpaceOnUse"
       x1="58.839353"
       y1="57.700767"
       x2="133.72544"
       y2="57.700767" /><linearGradient
       inkscape:collect="always"
       xlink:href="#linearGradient10"
       id="linearGradient54"
       gradientUnits="userSpaceOnUse"
       x1="58.839353"
       y1="57.700767"
       x2="133.72544"
       y2="57.700767" /><linearGradient
       inkscape:collect="always"
       xlink:href="#linearGradient10"
       id="linearGradient55"
       gradientUnits="userSpaceOnUse"
       x1="58.839353"
       y1="57.700767"
       x2="133.72544"
       y2="57.700767" /><linearGradient
       inkscape:collect="always"
       xlink:href="#linearGradient10"
       id="linearGradient60"
       gradientUnits="userSpaceOnUse"
       x1="58.839353"
       y1="57.700767"
       x2="133.72544"
       y2="57.700767" /><linearGradient
       inkscape:collect="always"
       xlink:href="#linearGradient10"
       id="linearGradient61"
       gradientUnits="userSpaceOnUse"
       x1="58.839353"
       y1="57.700767"
       x2="133.72544"
       y2="57.700767" /><linearGradient
       inkscape:collect="always"
       xlink:href="#linearGradient10"
       id="linearGradient62"
       gradientUnits="userSpaceOnUse"
       x1="58.839353"
       y1="57.700767"
       x2="133.72544"
       y2="57.700767" /><linearGradient
       inkscape:collect="always"
       xlink:href="#linearGradient10"
       id="linearGradient63"
       gradientUnits="userSpaceOnUse"
       x1="58.839353"
       y1="57.700767"
       x2="133.72544"
       y2="57.700767" /><linearGradient
       inkscape:collect="always"
       xlink:href="#linearGradient10"
       id="linearGradient64"
       gradientUnits="userSpaceOnUse"
       x1="58.839353"
       y1="57.700767"
       x2="133.72544"
       y2="57.700767" /><linearGradient
       inkscape:collect="always"
       xlink:href="#linearGradient10"
       id="linearGradient65"
       gradientUnits="userSpaceOnUse"
       x1="58.839353"
       y1="57.700767"
       x2="133.72544"
       y2="57.700767" /><linearGradient
       inkscape:collect="always"
       xlink:href="#linearGradient10"
       id="linearGradient66"
       gradientUnits="userSpaceOnUse"
       x1="58.839353"
       y1="57.700767"
       x2="133.72544"
       y2="57.700767" /><linearGradient
       inkscape:collect="always"
       xlink:href="#linearGradient10"
       id="linearGradient67"
       gradientUnits="userSpaceOnUse"
       x1="58.839353"
       y1="57.700767"
       x2="133.72544"
       y2="57.700767" /><linearGradient
       inkscape:collect="always"
       xlink:href="#linearGradient10"
       id="linearGradient83"
       gradientUnits="userSpaceOnUse"
       x1="58.839353"
       y1="57.700767"
       x2="133.72544"
       y2="57.700767" /><linearGradient
       inkscape:collect="always"
       xlink:href="#linearGradient10"
       id="linearGradient84"
       gradientUnits="userSpaceOnUse"
       x1="58.839353"
       y1="57.700767"
       x2="133.72544"
       y2="57.700767" /><linearGradient
       inkscape:collect="always"
       xlink:href="#linearGradient10"
       id="linearGradient85"
       gradientUnits="userSpaceOnUse"
       x1="58.839353"
       y1="57.700767"
       x2="133.72544"
       y2="57.700767" /><linearGradient
       inkscape:collect="always"
       xlink:href="#linearGradient10"
       id="linearGradient86"
       gradientUnits="userSpaceOnUse"
       x1="58.839353"
       y1="57.700767"
       x2="133.72544"
       y2="57.700767" /><linearGradient
       inkscape:collect="always"
       xlink:href="#linearGradient10"
       id="linearGradient87"
       gradientUnits="userSpaceOnUse"
       x1="58.839353"
       y1="57.700767"
       x2="133.72544"
       y2="57.700767" /><linearGradient
       inkscape:collect="always"
       xlink:href="#linearGradient10"
       id="linearGradient88"
       gradientUnits="userSpaceOnUse"
       x1="58.839353"
       y1="57.700767"
       x2="133.72544"
       y2="57.700767" /><linearGradient
       inkscape:collect="always"
       xlink:href="#linearGradient10"
       id="linearGradient89"
       gradientUnits="userSpaceOnUse"
       x1="58.839353"
       y1="57.700767"
       x2="133.72544"
       y2="57.700767" /><linearGradient
       inkscape:collect="always"
       xlink:href="#linearGradient10"
       id="linearGradient90"
       gradientUnits="userSpaceOnUse"
       x1="58.839353"
       y1="57.700767"
       x2="133.72544"
       y2="57.700767" /><linearGradient
       inkscape:collect="always"
       xlink:href="#linearGradient10"
       id="linearGradient91"
       gradientUnits="userSpaceOnUse"
       x1="58.839353"
       y1="57.700767"
       x2="133.72544"
       y2="57.700767" /><linearGradient
       inkscape:collect="always"
       xlink:href="#linearGradient10"
       id="linearGradient92"
       gradientUnits="userSpaceOnUse"
       x1="58.839353"
       y1="57.700767"
       x2="133.72544"
       y2="57.700767" /><linearGradient
       inkscape:collect="always"
       xlink:href="#linearGradient10"
       id="linearGradient93"
       gradientUnits="userSpaceOnUse"
       x1="58.839353"
       y1="57.700767"
       x2="133.72544"
       y2="57.700767" /><linearGradient
       inkscape:collect="always"
       xlink:href="#linearGradient10"
       id="linearGradient94"
       gradientUnits="userSpaceOnUse"
       x1="58.839353"
       y1="57.700767"
       x2="133.72544"
       y2="57.700767" /><linearGradient
       inkscape:collect="always"
       xlink:href="#linearGradient10"
       id="linearGradient95"
       gradientUnits="userSpaceOnUse"
       x1="58.839353"
       y1="57.700767"
       x2="133.72544"
       y2="57.700767" /><linearGradient
       inkscape:collect="always"
       xlink:href="#linearGradient10"
       id="linearGradient96"
       gradientUnits="userSpaceOnUse"
       x1="58.839353"
       y1="57.700767"
       x2="133.72544"
       y2="57.700767" /><linearGradient
       inkscape:collect="always"
       xlink:href="#linearGradient10"
       id="linearGradient97"
       gradientUnits="userSpaceOnUse"
       x1="58.839353"
       y1="57.700767"
       x2="133.72544"
       y2="57.700767" /><linearGradient
       inkscape:collect="always"
       xlink:href="#linearGradient10"
       id="linearGradient98"
       gradientUnits="userSpaceOnUse"
       x1="58.839353"
       y1="57.700767"
       x2="133.72544"
       y2="57.700767" /><linearGradient
       inkscape:collect="always"
       xlink:href="#linearGradient10"
       id="linearGradient99"
       gradientUnits="userSpaceOnUse"
       x1="58.839353"
       y1="57.700767"
       x2="133.72544"
       y2="57.700767" /><linearGradient
       inkscape:collect="always"
       xlink:href="#linearGradient10"
       id="linearGradient100"
       gradientUnits="userSpaceOnUse"
       x1="58.839353"
       y1="57.700767"
       x2="133.72544"
       y2="57.700767" /><filter
       inkscape:collect="always"
       style="color-interpolation-filters:sRGB"
       id="filter7"
       x="-0.45095111"
       y="-0.22476298"
       width="1.9019022"
       height="1.449526"><feGaussianBlur
         inkscape:collect="always"
         stdDeviation="3.5220465"
         id="feGaussianBlur7" /></filter></defs><g
     inkscape:groupmode="layer"
     id="layer2"
     inkscape:label="hero"
     style="display:inline"><g
       id="g46"
       style="stroke:url(#linearGradient67);stroke-width:1.41033;stroke-dasharray:none;stroke-opacity:1"
       transform="matrix(1.295123,0,0,-0.98726335,-14.253565,171.43034)"><path
         style="fill:none;fill-opacity:1;stroke:url(#linearGradient46);stroke-width:1.41033;stroke-dasharray:none;stroke-opacity:1"
         d="m 59.582561,27.03307 c 44.842059,-2.848995 27.34445,50.355853 73.369189,61.456847"
         id="path30"
         sodipodi:nodetypes="cc" /><path
         style="fill:none;fill-opacity:1;stroke:url(#linearGradient47);stroke-width:1.41033;stroke-dasharray:none;stroke-opacity:1"
         d="m 59.582561,27.03307 c 5.044011,37.219788 65.788829,35.736161 73.369189,61.456847"
         id="path31"
         sodipodi:nodetypes="cc" /><path
         style="fill:none;fill-opacity:1;stroke:url(#linearGradient48);stroke-width:1.41033;stroke-dasharray:none;stroke-opacity:1"
         d="M 59.582561,27.03307 C 97.385508,98.906943 134.03491,54.10571 132.95175,88.489917"
         id="path32"
         sodipodi:nodetypes="cc" /><path
         style="fill:none;fill-opacity:1;stroke:url(#linearGradient49);stroke-width:1.41033;stroke-dasharray:none;stroke-opacity:1"
         d="M 59.582561,27.03307 C 104.69535,40.428177 128.07874,56.813062 132.95175,88.489917"
         id="path33"
         sodipodi:nodetypes="cc" /><path
         style="fill:none;fill-opacity:1;stroke:url(#linearGradient50);stroke-width:1.41033;stroke-dasharray:none;stroke-opacity:1"
         d="M 59.582561,27.03307 C 88.451248,59.108895 128.07874,56.813062 132.95175,88.489917"
         id="path34"
         sodipodi:nodetypes="cc" /><path
         style="fill:none;fill-opacity:1;stroke:url(#linearGradient51);stroke-width:1.41033;stroke-dasharray:none;stroke-opacity:1"
         d="m 59.582561,27.03307 c 49.715289,84.59842 68.496179,29.779992 73.369189,61.456847"
         id="path35"
         sodipodi:nodetypes="cc" /><path
         style="fill:none;fill-opacity:1;stroke:url(#linearGradient52);stroke-width:1.41033;stroke-dasharray:none;stroke-opacity:1"
         d="M 59.582561,27.03307 C 109.29785,111.63149 119.95669,5.9148774 132.95175,88.489917"
         id="path36"
         sodipodi:nodetypes="cc" /><path
         style="fill:none;fill-opacity:1;stroke:url(#linearGradient53);stroke-width:1.41033;stroke-dasharray:none;stroke-opacity:1"
         d="M 59.582561,27.03307 C 81.141403,72.104183 108.58582,22.700449 132.95175,88.489917"
         id="path37"
         sodipodi:nodetypes="cc" /><path
         style="fill:none;fill-opacity:1;stroke:url(#linearGradient54);stroke-width:1.41033;stroke-dasharray:none;stroke-opacity:1"
         d="M 59.582561,27.03307 C 70.041267,55.318613 108.58582,22.700449 132.95175,88.489917"
         id="path38"
         sodipodi:nodetypes="cc" /><path
         style="fill:none;fill-opacity:1;stroke:url(#linearGradient55);stroke-width:1.41033;stroke-dasharray:none;stroke-opacity:1"
         d="M 59.582561,27.03307 C 70.041267,55.318613 99.9223,47.608071 132.95175,88.489917"
         id="path39"
         sodipodi:nodetypes="cc" /><path
         style="fill:none;fill-opacity:1;stroke:url(#linearGradient60);stroke-width:1.41033;stroke-dasharray:none;stroke-opacity:1"
         d="M 59.582561,27.03307 C 75.726703,88.889754 99.9223,47.608071 132.95175,88.489917"
         id="path40"
         sodipodi:nodetypes="cc" /><path
         style="fill:none;fill-opacity:1;stroke:url(#linearGradient61);stroke-width:1.41033;stroke-dasharray:none;stroke-opacity:1"
         d="M 59.582561,27.03307 C 122.83459,35.825689 99.9223,47.608071 132.95175,88.489917"
         id="path41"
         sodipodi:nodetypes="cc" /><path
         style="fill:none;fill-opacity:1;stroke:url(#linearGradient62);stroke-width:1.41033;stroke-dasharray:none;stroke-opacity:1"
         d="m 59.582561,27.03307 c 41.593229,18.268345 8.122271,23.823821 73.369189,61.456847"
         id="path42"
         sodipodi:nodetypes="cc" /><path
         style="fill:none;fill-opacity:1;stroke:url(#linearGradient63);stroke-width:1.41033;stroke-dasharray:none;stroke-opacity:1"
         d="M 59.582561,27.03307 C 101.17579,45.301415 91.800252,38.40308 132.95175,88.489917"
         id="path43"
         sodipodi:nodetypes="cc" /><path
         style="fill:none;fill-opacity:1;stroke:url(#linearGradient64);stroke-width:1.41033;stroke-dasharray:none;stroke-opacity:1"
         d="M 59.582561,27.03307 C 101.17579,45.301415 63.64381,75.764512 132.95175,88.489917"
         id="path44"
         sodipodi:nodetypes="cc" /><path
         style="fill:none;fill-opacity:1;stroke:url(#linearGradient65);stroke-width:1.41033;stroke-dasharray:none;stroke-opacity:1"
         d="M 59.582561,27.03307 C 87.639042,70.75051 76.411509,15.78805 132.95175,88.489917"
         id="path45"
         sodipodi:nodetypes="cc" /><path
         style="fill:none;fill-opacity:1;stroke:url(#linearGradient66);stroke-width:1.41033;stroke-dasharray:none;stroke-opacity:1"
         d="m 59.582561,27.03307 c 20.4759,87.57652 38.715335,5.413837 73.369189,61.456847"
         id="path46"
         sodipodi:nodetypes="cc" /></g><g
       id="g10"
       style="stroke:url(#linearGradient11);stroke-width:1.41033;stroke-dasharray:none;stroke-opacity:1"
       transform="matrix(1.295123,0,0,0.98726335,-13.474554,-4.6648357)"><path
         style="fill:none;fill-opacity:1;stroke:url(#linearGradient12);stroke-width:1.41033;stroke-dasharray:none;stroke-opacity:1"
         d="m 59.582561,27.03307 c 44.842059,-2.848995 27.34445,50.355853 73.369189,61.456847"
         id="path88"
         sodipodi:nodetypes="cc" /><path
         style="fill:none;fill-opacity:1;stroke:url(#linearGradient13);stroke-width:1.41033;stroke-dasharray:none;stroke-opacity:1"
         d="m 59.582561,27.03307 c 5.044011,37.219788 65.788829,35.736161 73.369189,61.456847"
         id="path89"
         sodipodi:nodetypes="cc" /><path
         style="fill:none;fill-opacity:1;stroke:url(#linearGradient14);stroke-width:1.41033;stroke-dasharray:none;stroke-opacity:1"
         d="M 59.582561,27.03307 C 97.385508,98.906943 134.03491,54.10571 132.95175,88.489917"
         id="path90"
         sodipodi:nodetypes="cc" /><path
         style="fill:none;fill-opacity:1;stroke:url(#linearGradient15);stroke-width:1.41033;stroke-dasharray:none;stroke-opacity:1"
         d="M 59.582561,27.03307 C 104.69535,40.428177 128.07874,56.813062 132.95175,88.489917"
         id="path91"
         sodipodi:nodetypes="cc" /><path
         style="fill:none;fill-opacity:1;stroke:url(#linearGradient16);stroke-width:1.41033;stroke-dasharray:none;stroke-opacity:1"
         d="M 59.582561,27.03307 C 88.451248,59.108895 128.07874,56.813062 132.95175,88.489917"
         id="path92"
         sodipodi:nodetypes="cc" /><path
         style="fill:none;fill-opacity:1;stroke:url(#linearGradient17);stroke-width:1.41033;stroke-dasharray:none;stroke-opacity:1"
         d="m 59.582561,27.03307 c 49.715289,84.59842 68.496179,29.779992 73.369189,61.456847"
         id="path93"
         sodipodi:nodetypes="cc" /><path
         style="fill:none;fill-opacity:1;stroke:url(#linearGradient18);stroke-width:1.41033;stroke-dasharray:none;stroke-opacity:1"
         d="M 59.582561,27.03307 C 109.29785,111.63149 119.95669,5.9148774 132.95175,88.489917"
         id="path94"
         sodipodi:nodetypes="cc" /><path
         style="fill:none;fill-opacity:1;stroke:url(#linearGradient19);stroke-width:1.41033;stroke-dasharray:none;stroke-opacity:1"
         d="M 59.582561,27.03307 C 81.141403,72.104183 108.58582,22.700449 132.95175,88.489917"
         id="path95"
         sodipodi:nodetypes="cc" /><path
         style="fill:none;fill-opacity:1;stroke:url(#linearGradient20);stroke-width:1.41033;stroke-dasharray:none;stroke-opacity:1"
         d="M 59.582561,27.03307 C 70.041267,55.318613 108.58582,22.700449 132.95175,88.489917"
         id="path96"
         sodipodi:nodetypes="cc" /><path
         style="fill:none;fill-opacity:1;stroke:url(#linearGradient21);stroke-width:1.41033;stroke-dasharray:none;stroke-opacity:1"
         d="M 59.582561,27.03307 C 70.041267,55.318613 99.9223,47.608071 132.95175,88.489917"
         id="path97"
         sodipodi:nodetypes="cc" /><path
         style="fill:none;fill-opacity:1;stroke:url(#linearGradient22);stroke-width:1.41033;stroke-dasharray:none;stroke-opacity:1"
         d="M 59.582561,27.03307 C 75.726703,88.889754 99.9223,47.608071 132.95175,88.489917"
         id="path98"
         sodipodi:nodetypes="cc" /><path
         style="fill:none;fill-opacity:1;stroke:url(#linearGradient23);stroke-width:1.41033;stroke-dasharray:none;stroke-opacity:1"
         d="M 59.582561,27.03307 C 122.83459,35.825689 99.9223,47.608071 132.95175,88.489917"
         id="path99"
         sodipodi:nodetypes="cc" /><path
         style="fill:none;fill-opacity:1;stroke:url(#linearGradient26);stroke-width:1.41033;stroke-dasharray:none;stroke-opacity:1"
         d="m 59.582561,27.03307 c 41.593229,18.268345 8.122271,23.823821 73.369189,61.456847"
         id="path100"
         sodipodi:nodetypes="cc" /><path
         style="fill:none;fill-opacity:1;stroke:url(#linearGradient27);stroke-width:1.41033;stroke-dasharray:none;stroke-opacity:1"
         d="M 59.582561,27.03307 C 101.17579,45.301415 91.800252,38.40308 132.95175,88.489917"
         id="path101"
         sodipodi:nodetypes="cc" /><path
         style="fill:none;fill-opacity:1;stroke:url(#linearGradient28);stroke-width:1.41033;stroke-dasharray:none;stroke-opacity:1"
         d="M 59.582561,27.03307 C 101.17579,45.301415 63.64381,75.764512 132.95175,88.489917"
         id="path132"
         sodipodi:nodetypes="cc" /><path
         style="fill:none;fill-opacity:1;stroke:url(#linearGradient29);stroke-width:1.41033;stroke-dasharray:none;stroke-opacity:1"
         d="M 59.582561,27.03307 C 87.639042,70.75051 76.411509,15.78805 132.95175,88.489917"
         id="path133"
         sodipodi:nodetypes="cc" /><path
         style="fill:none;fill-opacity:1;stroke:url(#linearGradient30);stroke-width:1.41033;stroke-dasharray:none;stroke-opacity:1"
         d="m 59.582561,27.03307 c 20.4759,87.57652 38.715335,5.413837 73.369189,61.456847"
         id="path134"
         sodipodi:nodetypes="cc" /></g><g
       id="g83"
       style="stroke:url(#linearGradient100);stroke-width:1.41033;stroke-dasharray:none;stroke-opacity:1"
       transform="matrix(1.1787312,0.53659699,0.40904418,-0.89853869,-35.52456,86.101479)"><path
         style="fill:none;fill-opacity:1;stroke:url(#linearGradient83);stroke-width:1.41033;stroke-dasharray:none;stroke-opacity:1"
         d="m 59.582561,27.03307 c 44.842059,-2.848995 27.34445,50.355853 73.369189,61.456847"
         id="path67"
         sodipodi:nodetypes="cc" /><path
         style="fill:none;fill-opacity:1;stroke:url(#linearGradient84);stroke-width:1.41033;stroke-dasharray:none;stroke-opacity:1"
         d="m 59.582561,27.03307 c 5.044011,37.219788 65.788829,35.736161 73.369189,61.456847"
         id="path68"
         sodipodi:nodetypes="cc" /><path
         style="fill:none;fill-opacity:1;stroke:url(#linearGradient85);stroke-width:1.41033;stroke-dasharray:none;stroke-opacity:1"
         d="M 59.582561,27.03307 C 97.385508,98.906943 134.03491,54.10571 132.95175,88.489917"
         id="path69"
         sodipodi:nodetypes="cc" /><path
         style="fill:none;fill-opacity:1;stroke:url(#linearGradient86);stroke-width:1.41033;stroke-dasharray:none;stroke-opacity:1"
         d="M 59.582561,27.03307 C 104.69535,40.428177 128.07874,56.813062 132.95175,88.489917"
         id="path70"
         sodipodi:nodetypes="cc" /><path
         style="fill:none;fill-opacity:1;stroke:url(#linearGradient87);stroke-width:1.41033;stroke-dasharray:none;stroke-opacity:1"
         d="M 59.582561,27.03307 C 88.451248,59.108895 128.07874,56.813062 132.95175,88.489917"
         id="path71"
         sodipodi:nodetypes="cc" /><path
         style="fill:none;fill-opacity:1;stroke:url(#linearGradient88);stroke-width:1.41033;stroke-dasharray:none;stroke-opacity:1"
         d="m 59.582561,27.03307 c 49.715289,84.59842 68.496179,29.779992 73.369189,61.456847"
         id="path72"
         sodipodi:nodetypes="cc" /><path
         style="fill:none;fill-opacity:1;stroke:url(#linearGradient89);stroke-width:1.41033;stroke-dasharray:none;stroke-opacity:1"
         d="M 59.582561,27.03307 C 109.29785,111.63149 119.95669,5.9148774 132.95175,88.489917"
         id="path73"
         sodipodi:nodetypes="cc" /><path
         style="fill:none;fill-opacity:1;stroke:url(#linearGradient90);stroke-width:1.41033;stroke-dasharray:none;stroke-opacity:1"
         d="M 59.582561,27.03307 C 81.141403,72.104183 108.58582,22.700449 132.95175,88.489917"
         id="path74"
         sodipodi:nodetypes="cc" /><path
         style="fill:none;fill-opacity:1;stroke:url(#linearGradient91);stroke-width:1.41033;stroke-dasharray:none;stroke-opacity:1"
         d="M 59.582561,27.03307 C 70.041267,55.318613 108.58582,22.700449 132.95175,88.489917"
         id="path75"
         sodipodi:nodetypes="cc" /><path
         style="fill:none;fill-opacity:1;stroke:url(#linearGradient92);stroke-width:1.41033;stroke-dasharray:none;stroke-opacity:1"
         d="M 59.582561,27.03307 C 70.041267,55.318613 99.9223,47.608071 132.95175,88.489917"
         id="path76"
         sodipodi:nodetypes="cc" /><path
         style="fill:none;fill-opacity:1;stroke:url(#linearGradient93);stroke-width:1.41033;stroke-dasharray:none;stroke-opacity:1"
         d="M 59.582561,27.03307 C 75.726703,88.889754 99.9223,47.608071 132.95175,88.489917"
         id="path77"
         sodipodi:nodetypes="cc" /><path
         style="fill:none;fill-opacity:1;stroke:url(#linearGradient94);stroke-width:1.41033;stroke-dasharray:none;stroke-opacity:1"
         d="M 59.582561,27.03307 C 122.83459,35.825689 99.9223,47.608071 132.95175,88.489917"
         id="path78"
         sodipodi:nodetypes="cc" /><path
         style="fill:none;fill-opacity:1;stroke:url(#linearGradient95);stroke-width:1.41033;stroke-dasharray:none;stroke-opacity:1"
         d="m 59.582561,27.03307 c 41.593229,18.268345 8.122271,23.823821 73.369189,61.456847"
         id="path79"
         sodipodi:nodetypes="cc" /><path
         style="fill:none;fill-opacity:1;stroke:url(#linearGradient96);stroke-width:1.41033;stroke-dasharray:none;stroke-opacity:1"
         d="M 59.582561,27.03307 C 101.17579,45.301415 91.800252,38.40308 132.95175,88.489917"
         id="path80"
         sodipodi:nodetypes="cc" /><path
         style="fill:none;fill-opacity:1;stroke:url(#linearGradient97);stroke-width:1.41033;stroke-dasharray:none;stroke-opacity:1"
         d="M 59.582561,27.03307 C 101.17579,45.301415 63.64381,75.764512 132.95175,88.489917"
         id="path81"
         sodipodi:nodetypes="cc" /><path
         style="fill:none;fill-opacity:1;stroke:url(#linearGradient98);stroke-width:1.41033;stroke-dasharray:none;stroke-opacity:1"
         d="M 59.582561,27.03307 C 87.639042,70.75051 76.411509,15.78805 132.95175,88.489917"
         id="path82"
         sodipodi:nodetypes="cc" /><path
         style="fill:none;fill-opacity:1;stroke:url(#linearGradient99);stroke-width:1.41033;stroke-dasharray:none;stroke-opacity:1"
         d="m 59.582561,27.03307 c 20.4759,87.57652 38.715335,5.413837 73.369189,61.456847"
         id="path83"
         sodipodi:nodetypes="cc" /></g><path
       id="circle7"
       style="opacity:0.5;mix-blend-mode:normal;fill:#000000;fill-opacity:1;stroke:none;stroke-width:1.151;stroke-linecap:round;filter:url(#filter7)"
       d="M 163.13263,69.917096 A 18.804085,18.804085 0 0 0 144.388,88.721152 18.804085,18.804085 0 0 0 163.13263,107.52521 Z"
       transform="matrix(1.3612548,0,0,1.3612548,-61.986104,-32.050944)" /><circle
       style="fill:url(#linearGradient212);fill-opacity:1;stroke:none;stroke-width:0.252182"
       id="path16"
       cx="-159.59389"
       cy="84.662895"
       r="12.089109"
       transform="scale(-1,1)" /><path
       id="path8"
       style="opacity:0.5;mix-blend-mode:normal;fill:#000000;fill-opacity:1;stroke:none;stroke-width:1.151;stroke-linecap:round;filter:url(#filter7)"
       d="M 163.13263,69.917096 A 18.804085,18.804085 0 0 0 144.388,88.721152 18.804085,18.804085 0 0 0 163.13263,107.52521 Z"
       transform="matrix(-1.3612548,0,0,1.3612548,269.33752,-28.115725)" /><g
       id="g29"
       transform="matrix(0.80458082,0,0,0.80458082,-10.319599,34.934843)"><path
         id="path27"
         style="fill:url(#linearGradient35);fill-opacity:1;stroke:none;stroke-width:0.209242"
         d="m 59.254598,43.393887 a 17.644668,17.644668 0 0 0 -11.573268,4.325594 9.260825,9.260825 0 0 0 -2.799027,-0.433166 9.260825,9.260825 0 0 0 -8.705037,6.100857 15.120862,15.120862 0 0 0 -13.281272,15.008526 15.120862,15.120862 0 0 0 15.120763,15.12098 15.120862,15.120862 0 0 0 11.379499,-5.163592 11.80592,11.80592 0 0 0 8.510838,3.623836 11.80592,11.80592 0 0 0 7.120943,-2.389436 11.80592,11.80592 0 0 0 7.850169,2.988254 A 11.80592,11.80592 0 0 0 84.684167,70.76978 11.80592,11.80592 0 0 0 76.84438,59.650003 17.644668,17.644668 0 0 0 59.254598,43.393887 Z" /><path
         id="path29"
         style="opacity:0.611727;fill:url(#linearGradient40);fill-opacity:1;stroke:none;stroke-width:0.209242;filter:url(#filter25)"
         d="m 59.254598,43.393887 a 17.644668,17.644668 0 0 0 -11.573268,4.325594 9.260825,9.260825 0 0 0 -2.799027,-0.433166 9.260825,9.260825 0 0 0 -8.705037,6.100857 15.120862,15.120862 0 0 0 -13.281272,15.008526 15.120862,15.120862 0 0 0 15.120763,15.12098 15.120862,15.120862 0 0 0 11.379499,-5.163592 11.80592,11.80592 0 0 0 8.510838,3.623836 11.80592,11.80592 0 0 0 7.120943,-2.389436 11.80592,11.80592 0 0 0 7.850169,2.988254 A 11.80592,11.80592 0 0 0 84.684167,70.76978 11.80592,11.80592 0 0 0 76.84438,59.650003 17.644668,17.644668 0 0 0 59.254598,43.393887 Z" /></g><path
       id="path9"
       style="opacity:0.5;mix-blend-mode:normal;fill:#000000;fill-opacity:1;stroke:none;stroke-width:1.151;stroke-linecap:round;filter:url(#filter7)"
       d="M 163.13263,69.917096 A 18.804085,18.804085 0 0 0 144.388,88.721152 18.804085,18.804085 0 0 0 163.13263,107.52521 Z"
       transform="matrix(-1.1788812,0.6806274,0.6806274,1.1788812,199.51251,-67.935206)" /><g
       id="g56"
       transform="matrix(0.80458082,0,0,0.80458082,10.968265,101.08234)"><path
         id="path55"
         style="fill:url(#linearGradient56);fill-opacity:1;stroke:none;stroke-width:0.209242"
         d="m 59.254598,43.393887 a 17.644668,17.644668 0 0 0 -11.573268,4.325594 9.260825,9.260825 0 0 0 -2.799027,-0.433166 9.260825,9.260825 0 0 0 -8.705037,6.100857 15.120862,15.120862 0 0 0 -13.281272,15.008526 15.120862,15.120862 0 0 0 15.120763,15.12098 15.120862,15.120862 0 0 0 11.379499,-5.163592 11.80592,11.80592 0 0 0 8.510838,3.623836 11.80592,11.80592 0 0 0 7.120943,-2.389436 11.80592,11.80592 0 0 0 7.850169,2.988254 A 11.80592,11.80592 0 0 0 84.684167,70.76978 11.80592,11.80592 0 0 0 76.84438,59.650003 17.644668,17.644668 0 0 0 59.254598,43.393887 Z" /><path
         id="path56"
         style="opacity:0.611727;fill:url(#linearGradient57);fill-opacity:1;stroke:none;stroke-width:0.209242;filter:url(#filter25)"
         d="m 59.254598,43.393887 a 17.644668,17.644668 0 0 0 -11.573268,4.325594 9.260825,9.260825 0 0 0 -2.799027,-0.433166 9.260825,9.260825 0 0 0 -8.705037,6.100857 15.120862,15.120862 0 0 0 -13.281272,15.008526 15.120862,15.120862 0 0 0 15.120763,15.12098 15.120862,15.120862 0 0 0 11.379499,-5.163592 11.80592,11.80592 0 0 0 8.510838,3.623836 11.80592,11.80592 0 0 0 7.120943,-2.389436 11.80592,11.80592 0 0 0 7.850169,2.988254 A 11.80592,11.80592 0 0 0 84.684167,70.76978 11.80592,11.80592 0 0 0 76.84438,59.650003 17.644668,17.644668 0 0 0 59.254598,43.393887 Z" /></g><path
       id="path10"
       style="opacity:0.5;mix-blend-mode:normal;fill:#000000;fill-opacity:1;stroke:none;stroke-width:1.151;stroke-linecap:round;filter:url(#filter7)"
       d="M 163.13263,69.917096 A 18.804085,18.804085 0 0 0 144.388,88.721152 18.804085,18.804085 0 0 0 163.13263,107.52521 Z"
       transform="matrix(-1.1788812,-0.6806274,0.6806274,-1.1788812,197.36603,246.09299)" /><g
       id="g26"
       transform="matrix(0.80458082,0,0,0.80458082,10.968265,-31.21265)"><path
         id="path6"
         style="fill:url(#linearGradient58);fill-opacity:1;stroke:none;stroke-width:0.209242"
         d="m 59.254598,43.393887 a 17.644668,17.644668 0 0 0 -11.573268,4.325594 9.260825,9.260825 0 0 0 -2.799027,-0.433166 9.260825,9.260825 0 0 0 -8.705037,6.100857 15.120862,15.120862 0 0 0 -13.281272,15.008526 15.120862,15.120862 0 0 0 15.120763,15.12098 15.120862,15.120862 0 0 0 11.379499,-5.163592 11.80592,11.80592 0 0 0 8.510838,3.623836 11.80592,11.80592 0 0 0 7.120943,-2.389436 11.80592,11.80592 0 0 0 7.850169,2.988254 A 11.80592,11.80592 0 0 0 84.684167,70.76978 11.80592,11.80592 0 0 0 76.84438,59.650003 17.644668,17.644668 0 0 0 59.254598,43.393887 Z" /><path
         id="path25"
         style="opacity:0.611727;fill:url(#linearGradient25);fill-opacity:1;stroke:none;stroke-width:0.209242;filter:url(#filter25)"
         d="m 59.254598,43.393887 a 17.644668,17.644668 0 0 0 -11.573268,4.325594 9.260825,9.260825 0 0 0 -2.799027,-0.433166 9.260825,9.260825 0 0 0 -8.705037,6.100857 15.120862,15.120862 0 0 0 -13.281272,15.008526 15.120862,15.120862 0 0 0 15.120763,15.12098 15.120862,15.120862 0 0 0 11.379499,-5.163592 11.80592,11.80592 0 0 0 8.510838,3.623836 11.80592,11.80592 0 0 0 7.120943,-2.389436 11.80592,11.80592 0 0 0 7.850169,2.988254 A 11.80592,11.80592 0 0 0 84.684167,70.76978 11.80592,11.80592 0 0 0 76.84438,59.650003 17.644668,17.644668 0 0 0 59.254598,43.393887 Z" /></g></g></svg>
