<?xml version="1.0" encoding="UTF-8" standalone="no"?>
<!-- Created with Inkscape (http://www.inkscape.org/) -->

<svg
   width="255.99998"
   height="255.99998"
   viewBox="0 0 67.733329 67.733329"
   version="1.1"
   id="svg1"
   inkscape:version="1.4.3 (0d15f75042, 2025-12-25)"
   sodipodi:docname="telecom.svg"
   inkscape:export-filename="json_visualizer.svg"
   inkscape:export-xdpi="192"
   inkscape:export-ydpi="192"
   xml:space="preserve"
   xmlns:inkscape="http://www.inkscape.org/namespaces/inkscape"
   xmlns:sodipodi="http://sodipodi.sourceforge.net/DTD/sodipodi-0.dtd"
   xmlns:xlink="http://www.w3.org/1999/xlink"
   xmlns="http://www.w3.org/2000/svg"
   xmlns:svg="http://www.w3.org/2000/svg"><sodipodi:namedview
     id="namedview1"
     pagecolor="#000000"
     bordercolor="#000000"
     borderopacity="0.25"
     inkscape:showpageshadow="2"
     inkscape:pageopacity="0.0"
     inkscape:pagecheckerboard="0"
     inkscape:deskcolor="#d1d1d1"
     inkscape:document-units="mm"
     inkscape:zoom="1.5075842"
     inkscape:cx="36.813864"
     inkscape:cy="111.10491"
     inkscape:window-width="1536"
     inkscape:window-height="779"
     inkscape:window-x="0"
     inkscape:window-y="0"
     inkscape:window-maximized="1"
     inkscape:current-layer="layer3"
     showguides="true"><inkscape:page
       x="0"
       y="0"
       width="67.73333"
       height="67.73333"
       id="page2"
       margin="0"
       bleed="0" /></sodipodi:namedview><defs
     id="defs1"><inkscape:path-effect
       effect="powerstroke"
       message=""
       id="path-effect19"
       is_visible="true"
       lpeversion="1.3"
       scale_width="1"
       interpolator_type="CentripetalCatmullRom"
       interpolator_beta="0.2"
       start_linecap_type="zerowidth"
       end_linecap_type="zerowidth"
       offset_points="0.2059823,0.53926701 | 0.51319306,0.8426951 | 0.80801021,0.64743464"
       linejoin_type="round"
       miter_limit="4"
       not_jump="false"
       sort_points="true" /><inkscape:path-effect
       effect="powerstroke"
       message=""
       id="path-effect16"
       is_visible="true"
       lpeversion="1.3"
       scale_width="1"
       interpolator_type="CentripetalCatmullRom"
       interpolator_beta="0.2"
       start_linecap_type="zerowidth"
       end_linecap_type="zerowidth"
       offset_points="0.2059823,0.53926701 | 0.51319306,0.8426951 | 0.80801021,0.64743464"
       linejoin_type="round"
       miter_limit="4"
       not_jump="false"
       sort_points="true" /><linearGradient
       id="linearGradient10"
       inkscape:collect="always"><stop
         style="stop-color:#219ebc;stop-opacity:1;"
         offset="0"
         id="stop9" /><stop
         style="stop-color:#59d3e0;stop-opacity:0;"
         offset="1"
         id="stop10" /></linearGradient><linearGradient
       id="linearGradient4"
       inkscape:collect="always"><stop
         style="stop-color:#219ebc;stop-opacity:1;"
         offset="0"
         id="stop3" /><stop
         style="stop-color:#59d3e0;stop-opacity:0;"
         offset="1"
         id="stop4" /></linearGradient><linearGradient
       id="linearGradient2"
       inkscape:collect="always"><stop
         style="stop-color:#8ecae6;stop-opacity:1;"
         offset="0"
         id="stop1" /><stop
         style="stop-color:#59d3e0;stop-opacity:0;"
         offset="1"
         id="stop2" /></linearGradient><inkscape:path-effect
       effect="powerstroke"
       message=""
       id="path-effect17"
       is_visible="true"
       lpeversion="1.3"
       scale_width="1"
       interpolator_type="CentripetalCatmullRom"
       interpolator_beta="0.2"
       start_linecap_type="zerowidth"
       end_linecap_type="zerowidth"
       offset_points="0.2059823,0.53926701 | 0.51319306,0.8426951 | 0.80801021,0.64743464"
       linejoin_type="round"
       miter_limit="4"
       not_jump="false"
       sort_points="true" /><inkscape:path-effect
       effect="powerstroke"
       message=""
       id="path-effect15"
       is_visible="true"
       lpeversion="1.3"
       scale_width="1"
       interpolator_type="CentripetalCatmullRom"
       interpolator_beta="0.2"
       start_linecap_type="zerowidth"
       end_linecap_type="zerowidth"
       offset_points="0.2059823,0.53926701 | 0.51319306,0.8426951 | 0.80801021,0.64743464"
       linejoin_type="round"
       miter_limit="4"
       not_jump="false"
       sort_points="true" /><inkscape:path-effect
       effect="powerstroke"
       message=""
       id="path-effect13"
       is_visible="true"
       lpeversion="1.3"
       scale_width="1"
       interpolator_type="CentripetalCatmullRom"
       interpolator_beta="0.2"
       start_linecap_type="zerowidth"
       end_linecap_type="zerowidth"
       offset_points="0.2059823,0.53926701 | 0.51319306,0.8426951 | 0.80801021,0.64743464"
       linejoin_type="round"
       miter_limit="4"
       not_jump="false"
       sort_points="true" /><inkscape:path-effect
       effect="powerstroke"
       message=""
       id="path-effect7"
       is_visible="true"
       lpeversion="1.3"
       scale_width="1"
       interpolator_type="CentripetalCatmullRom"
       interpolator_beta="0.2"
       start_linecap_type="zerowidth"
       end_linecap_type="zerowidth"
       offset_points="0.2059823,0.53926701 | 0.51319306,0.8426951 | 0.80801021,0.64743464"
       linejoin_type="round"
       miter_limit="4"
       not_jump="false"
       sort_points="true" /><inkscape:path-effect
       effect="powerstroke"
       message=""
       id="path-effect5"
       is_visible="true"
       lpeversion="1.3"
       scale_width="1"
       interpolator_type="CentripetalCatmullRom"
       interpolator_beta="0.2"
       start_linecap_type="zerowidth"
       end_linecap_type="zerowidth"
       offset_points="0.2059823,0.53926701 | 0.51319306,0.8426951 | 0.80801021,0.64743464"
       linejoin_type="round"
       miter_limit="4"
       not_jump="false"
       sort_points="true" /><inkscape:path-effect
       effect="powerstroke"
       message=""
       id="path-effect3"
       is_visible="true"
       lpeversion="1.3"
       scale_width="1"
       interpolator_type="CentripetalCatmullRom"
       interpolator_beta="0.2"
       start_linecap_type="zerowidth"
       end_linecap_type="zerowidth"
       offset_points="0.2059823,0.53926701 | 0.51319306,0.8426951 | 0.80801021,0.64743464"
       linejoin_type="round"
       miter_limit="4"
       not_jump="false"
       sort_points="true" /><inkscape:path-effect
       effect="powerstroke"
       message=""
       id="path-effect1"
       is_visible="true"
       lpeversion="1.3"
       scale_width="1"
       interpolator_type="CentripetalCatmullRom"
       interpolator_beta="0.2"
       start_linecap_type="zerowidth"
       end_linecap_type="zerowidth"
       offset_points="0.2059823,0.53926701 | 0.51319306,0.8426951 | 0.80801021,0.64743464"
       linejoin_type="round"
       miter_limit="4"
       not_jump="false"
       sort_points="true" /><linearGradient
       inkscape:collect="always"
       xlink:href="#linearGradient10"
       id="linearGradient7"
       gradientUnits="userSpaceOnUse"
       x1="27.179653"
       y1="16.937889"
       x2="29.954139"
       y2="17.042335"
       gradientTransform="matrix(1.1093878,0,0,1.1075217,-3.8551466,-0.67747685)" /><linearGradient
       inkscape:collect="always"
       xlink:href="#linearGradient4"
       id="linearGradient3"
       gradientUnits="userSpaceOnUse"
       gradientTransform="matrix(1.1093878,0,0,1.1075217,-3.8551466,-0.67747685)"
       x1="27.179653"
       y1="16.937889"
       x2="29.954139"
       y2="17.042335" /><linearGradient
       inkscape:collect="always"
       xlink:href="#linearGradient2"
       id="linearGradient6"
       gradientUnits="userSpaceOnUse"
       gradientTransform="matrix(1.1093878,0,0,1.1075217,-3.8551466,-0.67747685)"
       x1="27.179653"
       y1="16.937889"
       x2="29.954139"
       y2="17.042335" /><inkscape:path-effect
       effect="fillet_chamfer"
       id="path-effect13-5"
       is_visible="true"
       lpeversion="1"
       nodesatellites_param="F,0,0,1,0,1.9564619,0,1 @ F,0,0,1,0,0,0,1 @ F,0,0,1,0,0,0,1 @ F,0,0,1,0,0,0,1 @ F,0,0,1,0,0,0,1 @ F,0,0,1,0,0,0,1"
       radius="0"
       unit="px"
       method="auto"
       mode="F"
       chamfer_steps="1"
       flexible="false"
       use_knot_distance="true"
       apply_no_radius="true"
       apply_with_radius="true"
       only_selected="false"
       hide_knots="false" /><inkscape:path-effect
       effect="powerstroke"
       message=""
       id="path-effect11"
       is_visible="true"
       lpeversion="1.3"
       scale_width="1"
       interpolator_type="CentripetalCatmullRom"
       interpolator_beta="0.2"
       start_linecap_type="zerowidth"
       end_linecap_type="zerowidth"
       offset_points="0.2,0.3999995 | 0.5,0.3999995 | 0.97869974,0.26837323"
       linejoin_type="round"
       miter_limit="4"
       not_jump="false"
       sort_points="true" /><inkscape:path-effect
       effect="powerstroke"
       message=""
       id="path-effect1-3"
       is_visible="true"
       lpeversion="1.3"
       scale_width="1"
       interpolator_type="CentripetalCatmullRom"
       interpolator_beta="0.2"
       start_linecap_type="zerowidth"
       end_linecap_type="zerowidth"
       offset_points="0.29324515,0.83882751 | 1,2 | 1.7046208,0.83201091"
       linejoin_type="round"
       miter_limit="4"
       not_jump="false"
       sort_points="true" /><inkscape:path-effect
       effect="fillet_chamfer"
       id="path-effect193"
       is_visible="true"
       lpeversion="1"
       nodesatellites_param="F,0,0,1,0,0,0,1 @ F,0,0,1,0,16.180877,0,1 @ F,0,0,1,0,13.230049,0,1 @ F,0,0,1,0,0,0,1"
       radius="0"
       unit="px"
       method="auto"
       mode="F"
       chamfer_steps="1"
       flexible="false"
       use_knot_distance="true"
       apply_no_radius="true"
       apply_with_radius="true"
       only_selected="false"
       hide_knots="false" /><inkscape:path-effect
       effect="fillet_chamfer"
       id="path-effect192"
       is_visible="true"
       lpeversion="1"
       nodesatellites_param="F,0,0,1,0,0,0,1 @ F,0,0,1,0,0,0,1 @ F,0,0,1,0,13.480254,0,1 @ F,0,0,1,0,16.751163,0,1 @ F,0,0,1,0,4.0695344,0,1 @ F,0,0,1,0,4.5507335,0,1 @ F,0,0,1,0,0,0,1"
       radius="0"
       unit="px"
       method="auto"
       mode="F"
       chamfer_steps="1"
       flexible="false"
       use_knot_distance="true"
       apply_no_radius="true"
       apply_with_radius="true"
       only_selected="false"
       hide_knots="false" /><inkscape:path-effect
       effect="fillet_chamfer"
       id="path-effect191"
       is_visible="true"
       lpeversion="1"
       nodesatellites_param="F,0,0,1,0,0,0,1 @ F,0,0,1,0,10.077737,0,1 @ F,0,0,1,0,8.3355203,0,1 @ F,0,0,1,0,2.6866658,0,1 @ F,0,1,1,0,2.6866658,0,1 @ F,0,0,1,0,0,0,1"
       radius="0"
       unit="px"
       method="auto"
       mode="F"
       chamfer_steps="1"
       flexible="false"
       use_knot_distance="true"
       apply_no_radius="true"
       apply_with_radius="true"
       only_selected="false"
       hide_knots="false" /><inkscape:path-effect
       effect="fillet_chamfer"
       id="path-effect190"
       is_visible="true"
       lpeversion="1"
       nodesatellites_param="F,0,0,1,0,0,0,1 @ F,0,0,1,0,0,0,1 @ F,0,0,1,0,5.5154884,0,1 @ F,0,0,1,0,5.358017,0,1 @ F,0,0,1,0,0,0,1"
       radius="0"
       unit="px"
       method="auto"
       mode="F"
       chamfer_steps="1"
       flexible="false"
       use_knot_distance="true"
       apply_no_radius="true"
       apply_with_radius="true"
       only_selected="false"
       hide_knots="false" /><inkscape:path-effect
       effect="fillet_chamfer"
       id="path-effect189"
       is_visible="true"
       lpeversion="1"
       nodesatellites_param="F,0,0,1,0,0,0,1 @ F,0,0,1,0,13.740335,0,1 @ F,0,0,1,0,18.512679,0,1 @ F,0,0,1,0,0,0,1"
       radius="0"
       unit="px"
       method="auto"
       mode="F"
       chamfer_steps="1"
       flexible="false"
       use_knot_distance="true"
       apply_no_radius="true"
       apply_with_radius="true"
       only_selected="false"
       hide_knots="false" /><inkscape:path-effect
       effect="fillet_chamfer"
       id="path-effect188"
       is_visible="true"
       lpeversion="1"
       nodesatellites_param="F,0,0,1,0,0,0,1 @ F,0,0,1,0,11.923137,0,1 @ F,0,0,1,0,10.909998,0,1 @ F,0,0,1,0,0,0,1 @ F,0,0,1,0,0,0,1 @ F,0,0,1,0,12.128374,0,1 @ F,0,0,1,0,18.286095,0,1 @ F,0,0,1,0,18.261115,0,1 @ F,0,0,1,0,0,0,1"
       radius="0"
       unit="px"
       method="auto"
       mode="F"
       chamfer_steps="1"
       flexible="false"
       use_knot_distance="true"
       apply_no_radius="true"
       apply_with_radius="true"
       only_selected="false"
       hide_knots="false" /><inkscape:path-effect
       effect="fillet_chamfer"
       id="path-effect187"
       is_visible="true"
       lpeversion="1"
       nodesatellites_param="F,0,0,1,0,0,0,1 @ F,0,0,1,0,0,0,1 @ F,0,0,1,0,10.757927,0,1 @ F,0,0,1,0,23.538158,0,1 @ F,0,0,1,0,18.03584,0,1 @ F,0,0,1,0,0,0,1"
       radius="0"
       unit="px"
       method="auto"
       mode="F"
       chamfer_steps="1"
       flexible="false"
       use_knot_distance="true"
       apply_no_radius="true"
       apply_with_radius="true"
       only_selected="false"
       hide_knots="false" /><inkscape:path-effect
       effect="fill_between_many"
       method="bsplinespiro"
       autoreverse="false"
       close="false"
       join="false"
       linkedpaths="#path10,0,1"
       id="path-effect12" /><linearGradient
       inkscape:collect="always"
       xlink:href="#linearGradient10"
       id="linearGradient19"
       gradientUnits="userSpaceOnUse"
       gradientTransform="matrix(1.1093878,0,0,1.1075217,-3.8551466,-0.67747685)"
       x1="27.179653"
       y1="16.937889"
       x2="29.954139"
       y2="17.042335" /><linearGradient
       inkscape:collect="always"
       xlink:href="#linearGradient4"
       id="linearGradient20"
       gradientUnits="userSpaceOnUse"
       gradientTransform="matrix(1.1093878,0,0,1.1075217,-3.8551466,-0.67747685)"
       x1="27.179653"
       y1="16.937889"
       x2="29.954139"
       y2="17.042335" /><linearGradient
       inkscape:collect="always"
       xlink:href="#linearGradient2"
       id="linearGradient21"
       gradientUnits="userSpaceOnUse"
       gradientTransform="matrix(1.1093878,0,0,1.1075217,-3.8551466,-0.67747685)"
       x1="27.179653"
       y1="16.937889"
       x2="29.954139"
       y2="17.042335" /></defs><g
     inkscape:groupmode="layer"
     id="layer3"
     inkscape:label="telecom"
     style="display:inline"><path
       style="fill:none;fill-opacity:1;stroke:#ffffff;stroke-width:0.5;stroke-linecap:square;stroke-linejoin:round;stroke-dasharray:none;stroke-dashoffset:0;stroke-opacity:1"
       d="M 33.825735,23.058198 V 66.565857"
       id="path32"
       sodipodi:nodetypes="cc" /><path
       style="fill:none;fill-opacity:1;stroke:#8ecae6;stroke-width:0.999997;stroke-linecap:round;stroke-linejoin:round;stroke-dasharray:none;stroke-dashoffset:0;stroke-opacity:1"
       d="M 33.825733,23.058198 V 18.161017"
       id="path14"
       sodipodi:nodetypes="cc" /><path
       style="fill:none;fill-opacity:1;stroke:#ffd367;stroke-width:0.3;stroke-linecap:square;stroke-linejoin:round;stroke-dasharray:none;stroke-dashoffset:0;stroke-opacity:1"
       d="m 25.822974,49.275884 18.110775,8.793129"
       id="path26"
       sodipodi:nodetypes="cc" /><path
       style="fill:none;fill-opacity:1;stroke:#ffd367;stroke-width:0.3;stroke-linecap:square;stroke-linejoin:round;stroke-dasharray:none;stroke-dashoffset:0;stroke-opacity:1"
       d="m 41.832928,49.294394 -18.109064,8.74897"
       id="path27"
       sodipodi:nodetypes="cc" /><path
       style="fill:none;fill-opacity:1;stroke:#ffd367;stroke-width:0.3;stroke-linecap:square;stroke-linejoin:round;stroke-dasharray:none;stroke-dashoffset:0;stroke-opacity:1"
       d="m 27.95903,39.940421 13.204638,6.558644"
       id="path28"
       sodipodi:nodetypes="cc" /><path
       style="fill:none;fill-opacity:1;stroke:#ffd367;stroke-width:0.3;stroke-linecap:square;stroke-linejoin:round;stroke-dasharray:none;stroke-dashoffset:0;stroke-opacity:1"
       d="M 39.59452,39.945107 26.329,46.718106"
       id="path29"
       sodipodi:nodetypes="cc" /><path
       style="fill:none;fill-opacity:1;stroke:#ffd367;stroke-width:0.3;stroke-linecap:square;stroke-linejoin:round;stroke-dasharray:none;stroke-dashoffset:0;stroke-opacity:1"
       d="m 29.752701,32.862374 8.98532,3.505343"
       id="path30"
       sodipodi:nodetypes="cc" /><path
       style="fill:none;fill-opacity:1;stroke:#ffd367;stroke-width:0.3;stroke-linecap:square;stroke-linejoin:round;stroke-dasharray:none;stroke-dashoffset:0;stroke-opacity:1"
       d="m 37.788248,32.400749 -9.060088,4.74088"
       id="path31"
       sodipodi:nodetypes="cc" /><ellipse
       style="fill:#8ecae6;fill-opacity:1;stroke-width:2;stroke-linecap:round;stroke-dasharray:none"
       id="path33"
       cx="33.854111"
       cy="17.861895"
       rx="2.5780377"
       ry="2.5737014" /><g
       id="g10"><path
         style="fill:url(#linearGradient7);fill-opacity:1;fill-rule:nonzero;stroke:none;stroke-width:0.5;stroke-linecap:round;stroke-linejoin:round;stroke-dasharray:none;stroke-dashoffset:0;stroke-opacity:1"
         d="m 29.098263,11.676861 c -0.395224,0.04832 -1.095316,0.158947 -1.861282,0.647794 -0.378567,0.241605 -0.718222,0.5416 -1.003915,0.878838 -0.154835,0.18277 -0.303688,0.383684 -0.444376,0.602887 -0.372797,0.58085 -0.671282,1.263871 -0.874202,2.021245 -0.198185,0.739703 -0.295106,1.51293 -0.296693,2.272928 -1.72e-4,0.08204 7.68e-4,0.163725 0.0028,0.244981 0.03718,1.490975 0.415225,2.970194 1.124522,4.13817 0.18542,0.305324 0.387378,0.578984 0.601237,0.818863 0.25021,0.280653 0.544748,0.533098 0.866167,0.742397 0.791742,0.515561 1.499221,0.619404 1.885747,0.672733 -0.353835,-0.229706 -0.8084,-0.657221 -1.236297,-1.337188 -0.173047,-0.274987 -0.316663,-0.54743 -0.455944,-0.822106 -0.117888,-0.232486 -0.233217,-0.481789 -0.342928,-0.75133 -0.4224,-1.037764 -0.701721,-2.238076 -0.758069,-3.518267 -0.003,-0.06872 -0.0055,-0.137794 -0.0074,-0.207204 -0.01747,-0.645019 0.01645,-1.296427 0.113069,-1.933443 0.0987,-0.650693 0.256513,-1.244721 0.463816,-1.774802 0.07824,-0.200059 0.162324,-0.387978 0.251172,-0.564536 0.164176,-0.326247 0.351066,-0.64822 0.584936,-0.955684 0.479974,-0.631015 1.006687,-0.990197 1.387617,-1.176276 z"
         id="path15"
         sodipodi:nodetypes="cc"
         inkscape:path-effect="#path-effect1"
         inkscape:original-d="m 29.098263,11.676861 c -4.982921,1.476275 -4.725183,11.281359 0,13.040836"
         transform="translate(-1.8247446,-0.48363892)" /><path
         style="fill:url(#linearGradient3);fill-opacity:1;fill-rule:nonzero;stroke:none;stroke-width:0.293365;stroke-linecap:round;stroke-linejoin:round;stroke-dasharray:none;stroke-dashoffset:0;stroke-opacity:1"
         d="m 29.098263,11.676861 c -0.395224,0.04832 -1.095316,0.158947 -1.861282,0.647794 -0.378567,0.241605 -0.718222,0.5416 -1.003915,0.878838 -0.154835,0.18277 -0.303688,0.383684 -0.444376,0.602887 -0.372797,0.58085 -0.671282,1.263871 -0.874202,2.021245 -0.198185,0.739703 -0.295106,1.51293 -0.296693,2.272928 -1.72e-4,0.08204 7.68e-4,0.163725 0.0028,0.244981 0.03718,1.490975 0.415225,2.970194 1.124522,4.13817 0.18542,0.305324 0.387378,0.578984 0.601237,0.818863 0.25021,0.280653 0.544748,0.533098 0.866167,0.742397 0.791742,0.515561 1.499221,0.619404 1.885747,0.672733 -0.353835,-0.229706 -0.8084,-0.657221 -1.236297,-1.337188 -0.173047,-0.274987 -0.316663,-0.54743 -0.455944,-0.822106 -0.117888,-0.232486 -0.233217,-0.481789 -0.342928,-0.75133 -0.4224,-1.037764 -0.701721,-2.238076 -0.758069,-3.518267 -0.003,-0.06872 -0.0055,-0.137794 -0.0074,-0.207204 -0.01747,-0.645019 0.01645,-1.296427 0.113069,-1.933443 0.0987,-0.650693 0.256513,-1.244721 0.463816,-1.774802 0.07824,-0.200059 0.162324,-0.387978 0.251172,-0.564536 0.164176,-0.326247 0.351066,-0.64822 0.584936,-0.955684 0.479974,-0.631015 1.006687,-0.990197 1.387617,-1.176276 z"
         id="path1"
         sodipodi:nodetypes="cc"
         inkscape:path-effect="#path-effect3"
         inkscape:original-d="m 29.098263,11.676861 c -4.982921,1.476275 -4.725183,11.281359 0,13.040836"
         transform="matrix(1.70436,0,0,1.70436,-29.245028,-12.955665)" /><path
         style="fill:url(#linearGradient6);fill-opacity:1;fill-rule:nonzero;stroke:none;stroke-width:0.203811;stroke-linecap:round;stroke-linejoin:round;stroke-dasharray:none;stroke-dashoffset:0;stroke-opacity:1"
         d="m 29.098263,11.676861 c -0.395224,0.04832 -1.095316,0.158947 -1.861282,0.647794 -0.378567,0.241605 -0.718222,0.5416 -1.003915,0.878838 -0.154835,0.18277 -0.303688,0.383684 -0.444376,0.602887 -0.372797,0.58085 -0.671282,1.263871 -0.874202,2.021245 -0.198185,0.739703 -0.295106,1.51293 -0.296693,2.272928 -1.72e-4,0.08204 7.68e-4,0.163725 0.0028,0.244981 0.03718,1.490975 0.415225,2.970194 1.124522,4.13817 0.18542,0.305324 0.387378,0.578984 0.601237,0.818863 0.25021,0.280653 0.544748,0.533098 0.866167,0.742397 0.791742,0.515561 1.499221,0.619404 1.885747,0.672733 -0.353835,-0.229706 -0.8084,-0.657221 -1.236297,-1.337188 -0.173047,-0.274987 -0.316663,-0.54743 -0.455944,-0.822106 -0.117888,-0.232486 -0.233217,-0.481789 -0.342928,-0.75133 -0.4224,-1.037764 -0.701721,-2.238076 -0.758069,-3.518267 -0.003,-0.06872 -0.0055,-0.137794 -0.0074,-0.207204 -0.01747,-0.645019 0.01645,-1.296427 0.113069,-1.933443 0.0987,-0.650693 0.256513,-1.244721 0.463816,-1.774802 0.07824,-0.200059 0.162324,-0.387978 0.251172,-0.564536 0.164176,-0.326247 0.351066,-0.64822 0.584936,-0.955684 0.479974,-0.631015 1.006687,-0.990197 1.387617,-1.176276 z"
         id="path3"
         sodipodi:nodetypes="cc"
         inkscape:path-effect="#path-effect5"
         inkscape:original-d="m 29.098263,11.676861 c -4.982921,1.476275 -4.725183,11.281359 0,13.040836"
         transform="matrix(2.4532492,0,0,2.4532492,-60.299514,-26.496782)" /></g><g
       id="g1"
       transform="translate(63.579999,-3.3231449)"><rect
         style="fill:#8ecae6;fill-opacity:1;stroke:none;stroke-width:0.799999;stroke-linecap:round;stroke-linejoin:round"
         id="rect1"
         width="13.967888"
         height="14.053778"
         x="-93.288284"
         y="0.10437313"
         ry="0" /><rect
         style="fill:#219ebc;fill-opacity:1;stroke:none;stroke-width:0.799999;stroke-linecap:round;stroke-linejoin:round"
         id="rect2"
         width="13.967888"
         height="14.053778"
         x="-93.288284"
         y="14.158151"
         ry="0" /><rect
         style="fill:#88f8af;fill-opacity:1;stroke:none;stroke-width:0.799999;stroke-linecap:round;stroke-linejoin:round"
         id="rect3"
         width="13.967888"
         height="14.053778"
         x="-93.288284"
         y="28.211927"
         ry="0" /><rect
         style="fill:#ffd367;fill-opacity:1;stroke:none;stroke-width:0.799999;stroke-linecap:round;stroke-linejoin:round"
         id="rect4"
         width="13.967888"
         height="14.053778"
         x="-93.288284"
         y="42.265705"
         ry="0" /><rect
         style="fill:#ff8181;fill-opacity:1;stroke:none;stroke-width:0.799999;stroke-linecap:round;stroke-linejoin:round"
         id="rect5"
         width="13.967888"
         height="14.053778"
         x="-93.288284"
         y="56.319485"
         ry="0" /></g><path
       id="rect13"
       style="fill:none;stroke:#ffffff;stroke-width:0.5;stroke-linecap:round;stroke-linejoin:round;stroke-dasharray:none;stroke-dashoffset:0;stroke-opacity:1"
       d="M 32.100018,23.058198 21.711892,66.446877 h 2.501785 c 0.715429,-6.472225 4.802129,-11.259103 9.612058,-11.258903 4.80993,-2e-4 8.89663,4.786678 9.612058,11.258903 h 2.501784 L 35.551453,23.058198 Z"
       sodipodi:nodetypes="cccccccc" /><rect
       style="fill:#ffd367;fill-opacity:1;stroke:none;stroke-width:0.999997;stroke-linecap:round;stroke-linejoin:round;stroke-dasharray:none;stroke-dashoffset:0;stroke-opacity:1"
       id="rect31"
       width="7.1552677"
       height="1.831533"
       x="19.683367"
       y="65.809837"
       ry="0.59017259" /><rect
       style="fill:#ffd367;fill-opacity:1;stroke:none;stroke-width:0.999997;stroke-linecap:round;stroke-linejoin:round;stroke-dasharray:none;stroke-dashoffset:0;stroke-opacity:1"
       id="rect32"
       width="7.1552677"
       height="1.831533"
       x="40.932365"
       y="65.809837"
       ry="0.59017259" /><rect
       style="fill:#ffd367;fill-opacity:1;stroke:none;stroke-width:0.999997;stroke-linecap:round;stroke-linejoin:round;stroke-dasharray:none;stroke-dashoffset:0;stroke-opacity:1"
       id="rect33"
       width="3.5469451"
       height="1.831533"
       x="32.052265"
       y="65.803413"
       ry="0.59017259" /><g
       id="g12"
       transform="matrix(-1,0,0,1,67.827401,0)"><path
         style="fill:url(#linearGradient19);fill-opacity:1;fill-rule:nonzero;stroke:none;stroke-width:0.5;stroke-linecap:round;stroke-linejoin:round;stroke-dasharray:none;stroke-dashoffset:0;stroke-opacity:1"
         d="m 29.098263,11.676861 c -0.395224,0.04832 -1.095316,0.158947 -1.861282,0.647794 -0.378567,0.241605 -0.718222,0.5416 -1.003915,0.878838 -0.154835,0.18277 -0.303688,0.383684 -0.444376,0.602887 -0.372797,0.58085 -0.671282,1.263871 -0.874202,2.021245 -0.198185,0.739703 -0.295106,1.51293 -0.296693,2.272928 -1.72e-4,0.08204 7.68e-4,0.163725 0.0028,0.244981 0.03718,1.490975 0.415225,2.970194 1.124522,4.13817 0.18542,0.305324 0.387378,0.578984 0.601237,0.818863 0.25021,0.280653 0.544748,0.533098 0.866167,0.742397 0.791742,0.515561 1.499221,0.619404 1.885747,0.672733 -0.353835,-0.229706 -0.8084,-0.657221 -1.236297,-1.337188 -0.173047,-0.274987 -0.316663,-0.54743 -0.455944,-0.822106 -0.117888,-0.232486 -0.233217,-0.481789 -0.342928,-0.75133 -0.4224,-1.037764 -0.701721,-2.238076 -0.758069,-3.518267 -0.003,-0.06872 -0.0055,-0.137794 -0.0074,-0.207204 -0.01747,-0.645019 0.01645,-1.296427 0.113069,-1.933443 0.0987,-0.650693 0.256513,-1.244721 0.463816,-1.774802 0.07824,-0.200059 0.162324,-0.387978 0.251172,-0.564536 0.164176,-0.326247 0.351066,-0.64822 0.584936,-0.955684 0.479974,-0.631015 1.006687,-0.990197 1.387617,-1.176276 z"
         id="path10"
         sodipodi:nodetypes="cc"
         inkscape:path-effect="#path-effect1"
         inkscape:original-d="m 29.098263,11.676861 c -4.982921,1.476275 -4.725183,11.281359 0,13.040836"
         transform="translate(-1.8247446,-0.48363892)" /><path
         style="fill:url(#linearGradient20);fill-opacity:1;fill-rule:nonzero;stroke:none;stroke-width:0.293365;stroke-linecap:round;stroke-linejoin:round;stroke-dasharray:none;stroke-dashoffset:0;stroke-opacity:1"
         d="m 29.098263,11.676861 c -0.395224,0.04832 -1.095316,0.158947 -1.861282,0.647794 -0.378567,0.241605 -0.718222,0.5416 -1.003915,0.878838 -0.154835,0.18277 -0.303688,0.383684 -0.444376,0.602887 -0.372797,0.58085 -0.671282,1.263871 -0.874202,2.021245 -0.198185,0.739703 -0.295106,1.51293 -0.296693,2.272928 -1.72e-4,0.08204 7.68e-4,0.163725 0.0028,0.244981 0.03718,1.490975 0.415225,2.970194 1.124522,4.13817 0.18542,0.305324 0.387378,0.578984 0.601237,0.818863 0.25021,0.280653 0.544748,0.533098 0.866167,0.742397 0.791742,0.515561 1.499221,0.619404 1.885747,0.672733 -0.353835,-0.229706 -0.8084,-0.657221 -1.236297,-1.337188 -0.173047,-0.274987 -0.316663,-0.54743 -0.455944,-0.822106 -0.117888,-0.232486 -0.233217,-0.481789 -0.342928,-0.75133 -0.4224,-1.037764 -0.701721,-2.238076 -0.758069,-3.518267 -0.003,-0.06872 -0.0055,-0.137794 -0.0074,-0.207204 -0.01747,-0.645019 0.01645,-1.296427 0.113069,-1.933443 0.0987,-0.650693 0.256513,-1.244721 0.463816,-1.774802 0.07824,-0.200059 0.162324,-0.387978 0.251172,-0.564536 0.164176,-0.326247 0.351066,-0.64822 0.584936,-0.955684 0.479974,-0.631015 1.006687,-0.990197 1.387617,-1.176276 z"
         id="path11"
         sodipodi:nodetypes="cc"
         inkscape:path-effect="#path-effect16"
         inkscape:original-d="m 29.098263,11.676861 c -4.982921,1.476275 -4.725183,11.281359 0,13.040836"
         transform="matrix(1.70436,0,0,1.70436,-29.245028,-12.955665)" /><path
         style="fill:url(#linearGradient21);fill-opacity:1;fill-rule:nonzero;stroke:none;stroke-width:0.203811;stroke-linecap:round;stroke-linejoin:round;stroke-dasharray:none;stroke-dashoffset:0;stroke-opacity:1"
         d="m 29.098263,11.676861 c -0.395224,0.04832 -1.095316,0.158947 -1.861282,0.647794 -0.378567,0.241605 -0.718222,0.5416 -1.003915,0.878838 -0.154835,0.18277 -0.303688,0.383684 -0.444376,0.602887 -0.372797,0.58085 -0.671282,1.263871 -0.874202,2.021245 -0.198185,0.739703 -0.295106,1.51293 -0.296693,2.272928 -1.72e-4,0.08204 7.68e-4,0.163725 0.0028,0.244981 0.03718,1.490975 0.415225,2.970194 1.124522,4.13817 0.18542,0.305324 0.387378,0.578984 0.601237,0.818863 0.25021,0.280653 0.544748,0.533098 0.866167,0.742397 0.791742,0.515561 1.499221,0.619404 1.885747,0.672733 -0.353835,-0.229706 -0.8084,-0.657221 -1.236297,-1.337188 -0.173047,-0.274987 -0.316663,-0.54743 -0.455944,-0.822106 -0.117888,-0.232486 -0.233217,-0.481789 -0.342928,-0.75133 -0.4224,-1.037764 -0.701721,-2.238076 -0.758069,-3.518267 -0.003,-0.06872 -0.0055,-0.137794 -0.0074,-0.207204 -0.01747,-0.645019 0.01645,-1.296427 0.113069,-1.933443 0.0987,-0.650693 0.256513,-1.244721 0.463816,-1.774802 0.07824,-0.200059 0.162324,-0.387978 0.251172,-0.564536 0.164176,-0.326247 0.351066,-0.64822 0.584936,-0.955684 0.479974,-0.631015 1.006687,-0.990197 1.387617,-1.176276 z"
         id="path12"
         sodipodi:nodetypes="cc"
         inkscape:path-effect="#path-effect19"
         inkscape:original-d="m 29.098263,11.676861 c -4.982921,1.476275 -4.725183,11.281359 0,13.040836"
         transform="matrix(2.4532492,0,0,2.4532492,-60.299514,-26.496782)" /></g></g></svg>
