<?xml version="1.0" encoding="UTF-8" standalone="no"?>
<!-- Created with Inkscape (http://www.inkscape.org/) -->

<svg
   width="32"
   height="32"
   viewBox="0 0 8.4666667 8.466672"
   version="1.1"
   id="svg1"
   inkscape:version="1.4.3 (0d15f75042, 2025-12-25)"
   sodipodi:docname="favicon.svg"
   xmlns:inkscape="http://www.inkscape.org/namespaces/inkscape"
   xmlns:sodipodi="http://sodipodi.sourceforge.net/DTD/sodipodi-0.dtd"
   xmlns="http://www.w3.org/2000/svg"
   xmlns:svg="http://www.w3.org/2000/svg">
  <sodipodi:namedview
     id="namedview1"
     pagecolor="#000000"
     bordercolor="#ffffff"
     borderopacity="0.24705882"
     inkscape:showpageshadow="2"
     inkscape:pageopacity="0.0"
     inkscape:pagecheckerboard="0"
     inkscape:deskcolor="#d1d1d1"
     inkscape:document-units="mm"
     inkscape:zoom="17.84375"
     inkscape:cx="12.917688"
     inkscape:cy="15.887916"
     inkscape:window-width="1536"
     inkscape:window-height="779"
     inkscape:window-x="0"
     inkscape:window-y="0"
     inkscape:window-maximized="1"
     inkscape:current-layer="layer1"
     showguides="false" />
  <defs
     id="defs1">
    <inkscape:path-effect
       effect="powerstroke"
       message=""
       id="path-effect4"
       is_visible="true"
       lpeversion="1.3"
       scale_width="1"
       interpolator_type="CentripetalCatmullRom"
       interpolator_beta="0.2"
       start_linecap_type="zerowidth"
       end_linecap_type="zerowidth"
       offset_points="0.20042396,0.49944685 | 1.5007749,0.1812331 | 2.8003621,0.53260862"
       linejoin_type="round"
       miter_limit="4"
       not_jump="false"
       sort_points="true" />
    <inkscape:path-effect
       effect="powerstroke"
       message=""
       id="path-effect3"
       is_visible="true"
       lpeversion="1.3"
       scale_width="1"
       interpolator_type="CentripetalCatmullRom"
       interpolator_beta="0.2"
       start_linecap_type="zerowidth"
       end_linecap_type="zerowidth"
       offset_points="0.20177805,0.48836931 | 1.0093352,0.22248507 | 1.8281868,0.50568044"
       linejoin_type="round"
       miter_limit="4"
       not_jump="false"
       sort_points="true" />
    <inkscape:path-effect
       effect="fillet_chamfer"
       id="path-effect2"
       is_visible="true"
       lpeversion="1"
       nodesatellites_param="F,0,0,1,0,0,0,1 @ F,0,0,1,0,0,0,1 @ F,0,0,1,0,0,0,1 @ F,0,0,1,0,0,0,1"
       radius="0"
       unit="px"
       method="auto"
       mode="F"
       chamfer_steps="1"
       flexible="false"
       use_knot_distance="true"
       apply_no_radius="true"
       apply_with_radius="true"
       only_selected="false"
       hide_knots="false" />
    <inkscape:path-effect
       effect="fillet_chamfer"
       id="path-effect1"
       is_visible="true"
       lpeversion="1"
       nodesatellites_param="F,0,0,1,0,0,0,1 @ F,0,0,1,0,0,0,1 @ F,0,0,1,0,6.2557735,0,1 @ F,0,0,1,0,0,0,1 @ F,0,0,1,0,0,0,1 @ F,0,0,1,0,0,0,1 @ F,0,0,1,0,0,0,1"
       radius="0"
       unit="px"
       method="auto"
       mode="F"
       chamfer_steps="1"
       flexible="false"
       use_knot_distance="true"
       apply_no_radius="true"
       apply_with_radius="true"
       only_selected="false"
       hide_knots="false" />
  </defs>
  <g
     inkscape:label="Layer 1"
     inkscape:groupmode="layer"
     id="layer1">
    <path
       style="fill:#00e5ff;fill-opacity:0.75;fill-rule:nonzero;stroke:none;stroke-width:0.8;stroke-linecap:round;stroke-linejoin:round;stroke-dasharray:none"
       d="m 0.40035026,6.628021 c 0.089618,0.00659 0.39031546,-0.043947 0.5501912,-0.6084159 0.0245706,-0.086751 0.0468738,-0.1884846 0.0684639,-0.307301 C 1.1049603,5.2392706 1.1784007,4.4683135 1.3267374,3.5900885 1.3904742,3.2127358 1.4674996,2.8234955 1.5634059,2.4523016 1.656811,2.0907883 1.7661664,1.7541009 1.8949125,1.4653762 1.9591591,1.3212976 2.0272773,1.1913294 2.0993224,1.0772055 2.1723404,0.96154064 2.2482913,0.86390148 2.3268036,0.78472886 2.4070285,0.70382922 2.4889203,0.64321981 2.572024,0.60190833 c 0.085731,-0.0426173 0.1739346,-0.0653079 0.265224,-0.0680017 0.016324,-4.6713e-4 0.03238,-6.353e-4 0.048171,-5.1518e-4 0.1891603,0.001439 0.3543842,0.04476 0.4939476,0.1207725 0.1416339,0.0771402 0.2548608,0.18666609 0.3450334,0.31783018 C 3.813119,1.1010442 3.8795031,1.25097 3.9290218,1.4115011 c 0.050609,0.164066 0.082829,0.3366364 0.1039183,0.5054644 0.048374,0.3872494 0.037969,0.7331701 0.063415,0.9482347 0.010743,0.090802 0.027383,0.1599901 0.055512,0.2127478 0.1019344,0.1911793 0.4198761,0.2245786 0.5040578,0.2286486 0.084182,0.00407 0.4132322,-0.013613 0.5071223,-0.2477727 0.025809,-0.064368 0.038075,-0.1499623 0.036801,-0.2596405 C 5.1969676,2.5511534 5.1182464,2.1218657 4.9332152,1.6668671 4.8520404,1.4672553 4.7492874,1.261008 4.6215027,1.0666574 4.4959466,0.87569614 4.3474399,0.69803605 4.1726462,0.54836085 3.9936847,0.39511681 3.7946141,0.27750567 3.5732707,0.1998599 3.3565477,0.12383497 3.1286053,0.08956226 2.8880812,0.08842923 2.8679462,0.08833438 2.8475767,0.08847438 2.8269667,0.08886051 2.6767588,0.09173981 2.5304181,0.12143649 2.3880059,0.17774276 2.2509553,0.23192921 2.1206703,0.30952265 1.9967449,0.40701865 1.8758185,0.50215532 1.7611652,0.61607099 1.6523745,0.74524001 1.544984,0.87274671 1.4431021,1.0153626 1.3464907,1.1697562 1.1534803,1.4782041 0.98145983,1.8337784 0.82978785,2.2077302 0.6738676,2.5921563 0.53965655,2.9955677 0.42759779,3.3834643 0.16768798,4.2831543 0.02190017,5.1067206 -0.01267666,5.5825942 -0.02176893,5.7077293 -0.02417373,5.816484 -0.0200075,5.9098187 0.00594042,6.4911224 0.31917435,6.6220546 0.40035026,6.628021 Z"
       id="path1"
       sodipodi:nodetypes="czc"
       inkscape:path-effect="#path-effect3"
       inkscape:original-d="m 0.40035026,6.628021 c 0,0 0.46092726,-6.27110692 2.43175724,-6.31663746 1.9708299,-0.0455305 1.8238177,2.99521306 1.8238177,2.99521306"
       transform="translate(0.02198494,-0.08840059)" />
    <path
       style="fill:#00e5ff;fill-opacity:0.75;fill-rule:nonzero;stroke:none;stroke-width:0.799999;stroke-linecap:round;stroke-linejoin:round;stroke-dasharray:none"
       d="m 2.2389959,3.0693521 c 0.039942,0.077288 0.2160652,0.3246873 0.6862799,0.2195175 0.0719,-0.016081 0.1540404,-0.040387 0.2490763,-0.073137 C 3.5289597,3.0935313 4.0812501,2.8402042 4.7616321,2.566799 5.0402989,2.4548194 5.3373045,2.3416637 5.63116,2.2440217 5.9077182,2.1521274 6.1770642,2.0754593 6.423297,2.0258721 c 0.2395184,-0.048235 0.4389719,-0.067119 0.5968057,-0.05819 0.075751,0.00429 0.136942,0.014724 0.1856897,0.028635 0.047073,0.013433 0.085714,0.030925 0.1161665,0.053164 0.025192,0.022909 0.043206,0.042971 0.055967,0.059347 0.012583,0.016148 0.022063,0.031235 0.028487,0.045671 0.0066,0.01483 0.011354,0.031945 0.012322,0.053535 9.791e-4,0.021835 -0.00194,0.048363 -0.01102,0.080163 C 7.3891,2.353426 7.3469867,2.432638 7.2766294,2.5238367 7.2060493,2.615324 7.1121993,2.7123251 6.9979876,2.8136907 6.7634983,3.0218057 6.455438,3.2376064 6.1167924,3.4541296 5.7655601,3.6787004 5.3660006,3.913535 4.9951049,4.1315792 c -2.511e-4,1.476e-4 -0.00702,0.00413 -0.00727,0.00428 C 4.6193785,4.3524606 4.2102179,4.5922703 3.8352172,4.8348459 3.4747315,5.0680323 3.12103,5.3192695 2.8268132,5.5858927 2.6827406,5.7164533 2.5495626,5.8536835 2.4349661,5.9979545 2.3216594,6.1406018 2.2239932,6.2932829 2.1521522,6.4567782 2.0804845,6.6198792 2.0341658,6.7946208 2.0245028,6.9803186 c -0.00967,0.1858596 0.017787,0.3757444 0.085891,0.5671871 0.049637,0.147202 0.1277018,0.2779081 0.2322723,0.3895425 0.1044565,0.1115127 0.2288687,0.1971152 0.3629659,0.2615466 0.1347082,0.064725 0.2797878,0.1084314 0.4274846,0.1368283 0.1500047,0.028841 0.3065737,0.042636 0.4645721,0.045496 0.3250749,0.00588 0.6712547,-0.034303 1.0068284,-0.097014 C 4.9635959,8.2168019 5.3233093,8.121486 5.6528341,8.0190357 6.4539256,7.769974 7.1176478,7.4699854 7.469506,7.2650381 7.5708271,7.2060215 7.6544274,7.150794 7.7220394,7.0987908 8.161238,6.7609851 8.0471784,6.4370925 8.0070051,6.3611207 7.9634077,6.2786736 7.7722385,6.0178378 7.259833,6.1390757 7.1803225,6.1578884 7.0893797,6.1858617 6.9839281,6.2231939 6.597228,6.3600941 5.9952074,6.6385613 5.2704333,6.9213086 4.9732217,7.0372561 4.6595879,7.1510576 4.3548627,7.2432955 4.0669784,7.3304358 3.7945847,7.3960706 3.5531579,7.428873 3.4370036,7.4446547 3.3323185,7.4522386 3.239196,7.4520035 3.1474234,7.4517719 3.0709596,7.4439508 3.0079543,7.4309258 2.9469379,7.418312 2.897545,7.4006342 2.8589908,7.3792009 2.8207494,7.3579414 2.7842739,7.3282568 2.7531208,7.2802818 2.6991053,7.1775194 2.6687314,7.0777631 2.6584593,6.978521 2.6480253,6.877715 2.6576686,6.7725027 2.6900819,6.6596105 2.72287,6.5454126 2.7784522,6.4259141 2.8570791,6.3017182 2.936481,6.1762983 3.0372435,6.049457 3.1562978,5.9220355 3.4011377,5.6599884 3.714768,5.4045548 4.0566469,5.1614613 4.4127675,4.9082412 4.8022768,4.6665749 5.1718934,4.4481097 c 5.9e-6,-3.4e-6 0.00721,-0.00426 0.00722,-0.00426 C 5.5534385,4.2227444 5.9465748,4.0027748 6.3190939,3.7850507 6.6682367,3.5809892 7.0094465,3.3725563 7.2846052,3.1677861 7.4196353,3.0672982 7.544637,2.963437 7.6504934,2.8563347 7.7545639,2.7510392 7.8474596,2.6353239 7.9123418,2.5080162 c 0.032652,-0.064069 0.05901,-0.1326179 0.075697,-0.2055484 0.016725,-0.0731 0.023453,-0.1494402 0.017659,-0.2281266 C 7.9999055,1.9956806 7.9818397,1.9180202 7.9519799,1.8423073 7.9222435,1.7669072 7.8815895,1.6953802 7.83204,1.6278103 7.7523306,1.5159553 7.6510397,1.4261196 7.5366185,1.3557685 7.4224689,1.2855845 7.296667,1.2355907 7.1669708,1.2006329 6.9054245,1.1301368 6.6105295,1.1160928 6.315847,1.1327239 6.0070744,1.1501503 5.6821332,1.2022544 5.3670411,1.2711479 5.0303223,1.3447699 4.6960004,1.4395157 4.3906042,1.5382735 3.6467316,1.7788238 3.0447354,2.0493596 2.7228561,2.2372793 2.6322818,2.2901584 2.557462,2.3397079 2.4968163,2.3865332 2.0972613,2.6950344 2.2017375,2.9972566 2.2389959,3.0693521 Z"
       id="path2"
       sodipodi:nodetypes="cssc"
       inkscape:path-effect="#path-effect2;#path-effect4"
       inkscape:original-d="m 2.2389959,3.0693521 c 0,0 4.4529915,-2.30127345 5.3380034,-1.2307065 1.1989948,1.4503806 -6.1236229,3.2220467 -5.1452421,5.5752481 0.646006,1.5537735 5.5752479,-1.052773 5.5752479,-1.052773" />
  </g>
</svg>
