<?xml version="1.0" encoding="UTF-8" standalone="no"?>
<!-- Created with Inkscape (http://www.inkscape.org/) -->

<svg
   width="255.99998"
   height="255.99998"
   viewBox="0 0 67.733329 67.733329"
   version="1.1"
   id="svg1"
   inkscape:version="1.4.3 (0d15f75042, 2025-12-25)"
   sodipodi:docname="sql.svg"
   inkscape:export-filename="github.svg"
   inkscape:export-xdpi="192"
   inkscape:export-ydpi="192"
   xml:space="preserve"
   xmlns:inkscape="http://www.inkscape.org/namespaces/inkscape"
   xmlns:sodipodi="http://sodipodi.sourceforge.net/DTD/sodipodi-0.dtd"
   xmlns:xlink="http://www.w3.org/1999/xlink"
   xmlns="http://www.w3.org/2000/svg"
   xmlns:svg="http://www.w3.org/2000/svg"><sodipodi:namedview
     id="namedview1"
     pagecolor="#000000"
     bordercolor="#000000"
     borderopacity="0.25"
     inkscape:showpageshadow="2"
     inkscape:pageopacity="0.0"
     inkscape:pagecheckerboard="0"
     inkscape:deskcolor="#d1d1d1"
     inkscape:document-units="mm"
     inkscape:zoom="1.2155504"
     inkscape:cx="108.18145"
     inkscape:cy="118.05352"
     inkscape:window-width="1536"
     inkscape:window-height="779"
     inkscape:window-x="0"
     inkscape:window-y="0"
     inkscape:window-maximized="1"
     inkscape:current-layer="layer3"
     showguides="true"><inkscape:page
       x="0"
       y="0"
       width="67.73333"
       height="67.73333"
       id="page2"
       margin="0"
       bleed="0" /></sodipodi:namedview><defs
     id="defs1"><linearGradient
       id="linearGradient10"
       inkscape:collect="always"><stop
         style="stop-color:#8ecae6;stop-opacity:1;"
         offset="0"
         id="stop10" /><stop
         style="stop-color:#219ebc;stop-opacity:1;"
         offset="0.99899113"
         id="stop11" /></linearGradient><inkscape:path-effect
       effect="fillet_chamfer"
       id="path-effect14"
       is_visible="true"
       lpeversion="1"
       nodesatellites_param="F,0,0,1,0,3.1517705,0,1 @ F,0,0,1,0,0,0,1 @ F,0,0,1,0,0,0,1 @ F,0,0,1,0,0,0,1 @ F,0,0,1,0,3.4378537,0,1 @ F,0,0,1,0,0,0,1 @ F,0,0,1,0,4.2403478,0,1 @ F,0,0,1,0,0,0,1 @ F,0,0,1,0,4.4439473,0,1 @ F,0,0,1,0,0,0,1 @ F,0,0,1,0,0,0,1 @ F,0,0,1,0,3.3112438,0,1 @ F,0,0,1,0,0,0,1"
       radius="0"
       unit="px"
       method="auto"
       mode="F"
       chamfer_steps="1"
       flexible="false"
       use_knot_distance="true"
       apply_no_radius="true"
       apply_with_radius="true"
       only_selected="false"
       hide_knots="false" /><inkscape:path-effect
       effect="fillet_chamfer"
       id="path-effect7"
       is_visible="true"
       lpeversion="1"
       nodesatellites_param="F,0,0,1,0,3.1517705,0,1 @ F,0,0,1,0,0,0,1 @ F,0,0,1,0,0,0,1 @ F,0,0,1,0,0,0,1 @ F,0,0,1,0,3.4378537,0,1 @ F,0,0,1,0,0,0,1 @ F,0,0,1,0,4.2403478,0,1 @ F,0,0,1,0,0,0,1 @ F,0,0,1,0,4.4439473,0,1 @ F,0,0,1,0,0,0,1 @ F,0,0,1,0,0,0,1 @ F,0,0,1,0,3.3112438,0,1 @ F,0,0,1,0,0,0,1"
       radius="0"
       unit="px"
       method="auto"
       mode="F"
       chamfer_steps="1"
       flexible="false"
       use_knot_distance="true"
       apply_no_radius="true"
       apply_with_radius="true"
       only_selected="false"
       hide_knots="false" /><inkscape:path-effect
       effect="fillet_chamfer"
       id="path-effect13"
       is_visible="true"
       lpeversion="1"
       nodesatellites_param="F,0,0,1,0,1.9564619,0,1 @ F,0,0,1,0,0,0,1 @ F,0,0,1,0,0,0,1 @ F,0,0,1,0,0,0,1 @ F,0,0,1,0,0,0,1 @ F,0,0,1,0,0,0,1"
       radius="0"
       unit="px"
       method="auto"
       mode="F"
       chamfer_steps="1"
       flexible="false"
       use_knot_distance="true"
       apply_no_radius="true"
       apply_with_radius="true"
       only_selected="false"
       hide_knots="false" /><inkscape:path-effect
       effect="powerstroke"
       message=""
       id="path-effect11"
       is_visible="true"
       lpeversion="1.3"
       scale_width="1"
       interpolator_type="CentripetalCatmullRom"
       interpolator_beta="0.2"
       start_linecap_type="zerowidth"
       end_linecap_type="zerowidth"
       offset_points="0.2,0.3999995 | 0.5,0.3999995 | 0.97869974,0.26837323"
       linejoin_type="round"
       miter_limit="4"
       not_jump="false"
       sort_points="true" /><inkscape:path-effect
       effect="powerstroke"
       message=""
       id="path-effect1"
       is_visible="true"
       lpeversion="1.3"
       scale_width="1"
       interpolator_type="CentripetalCatmullRom"
       interpolator_beta="0.2"
       start_linecap_type="zerowidth"
       end_linecap_type="zerowidth"
       offset_points="0.29324515,0.83882751 | 1,2 | 1.7046208,0.83201091"
       linejoin_type="round"
       miter_limit="4"
       not_jump="false"
       sort_points="true" /><inkscape:path-effect
       effect="fillet_chamfer"
       id="path-effect193"
       is_visible="true"
       lpeversion="1"
       nodesatellites_param="F,0,0,1,0,0,0,1 @ F,0,0,1,0,16.180877,0,1 @ F,0,0,1,0,13.230049,0,1 @ F,0,0,1,0,0,0,1"
       radius="0"
       unit="px"
       method="auto"
       mode="F"
       chamfer_steps="1"
       flexible="false"
       use_knot_distance="true"
       apply_no_radius="true"
       apply_with_radius="true"
       only_selected="false"
       hide_knots="false" /><inkscape:path-effect
       effect="fillet_chamfer"
       id="path-effect192"
       is_visible="true"
       lpeversion="1"
       nodesatellites_param="F,0,0,1,0,0,0,1 @ F,0,0,1,0,0,0,1 @ F,0,0,1,0,13.480254,0,1 @ F,0,0,1,0,16.751163,0,1 @ F,0,0,1,0,4.0695344,0,1 @ F,0,0,1,0,4.5507335,0,1 @ F,0,0,1,0,0,0,1"
       radius="0"
       unit="px"
       method="auto"
       mode="F"
       chamfer_steps="1"
       flexible="false"
       use_knot_distance="true"
       apply_no_radius="true"
       apply_with_radius="true"
       only_selected="false"
       hide_knots="false" /><inkscape:path-effect
       effect="fillet_chamfer"
       id="path-effect191"
       is_visible="true"
       lpeversion="1"
       nodesatellites_param="F,0,0,1,0,0,0,1 @ F,0,0,1,0,10.077737,0,1 @ F,0,0,1,0,8.3355203,0,1 @ F,0,0,1,0,2.6866658,0,1 @ F,0,1,1,0,2.6866658,0,1 @ F,0,0,1,0,0,0,1"
       radius="0"
       unit="px"
       method="auto"
       mode="F"
       chamfer_steps="1"
       flexible="false"
       use_knot_distance="true"
       apply_no_radius="true"
       apply_with_radius="true"
       only_selected="false"
       hide_knots="false" /><inkscape:path-effect
       effect="fillet_chamfer"
       id="path-effect190"
       is_visible="true"
       lpeversion="1"
       nodesatellites_param="F,0,0,1,0,0,0,1 @ F,0,0,1,0,0,0,1 @ F,0,0,1,0,5.5154884,0,1 @ F,0,0,1,0,5.358017,0,1 @ F,0,0,1,0,0,0,1"
       radius="0"
       unit="px"
       method="auto"
       mode="F"
       chamfer_steps="1"
       flexible="false"
       use_knot_distance="true"
       apply_no_radius="true"
       apply_with_radius="true"
       only_selected="false"
       hide_knots="false" /><inkscape:path-effect
       effect="fillet_chamfer"
       id="path-effect189"
       is_visible="true"
       lpeversion="1"
       nodesatellites_param="F,0,0,1,0,0,0,1 @ F,0,0,1,0,13.740335,0,1 @ F,0,0,1,0,18.512679,0,1 @ F,0,0,1,0,0,0,1"
       radius="0"
       unit="px"
       method="auto"
       mode="F"
       chamfer_steps="1"
       flexible="false"
       use_knot_distance="true"
       apply_no_radius="true"
       apply_with_radius="true"
       only_selected="false"
       hide_knots="false" /><inkscape:path-effect
       effect="fillet_chamfer"
       id="path-effect188"
       is_visible="true"
       lpeversion="1"
       nodesatellites_param="F,0,0,1,0,0,0,1 @ F,0,0,1,0,11.923137,0,1 @ F,0,0,1,0,10.909998,0,1 @ F,0,0,1,0,0,0,1 @ F,0,0,1,0,0,0,1 @ F,0,0,1,0,12.128374,0,1 @ F,0,0,1,0,18.286095,0,1 @ F,0,0,1,0,18.261115,0,1 @ F,0,0,1,0,0,0,1"
       radius="0"
       unit="px"
       method="auto"
       mode="F"
       chamfer_steps="1"
       flexible="false"
       use_knot_distance="true"
       apply_no_radius="true"
       apply_with_radius="true"
       only_selected="false"
       hide_knots="false" /><inkscape:path-effect
       effect="fillet_chamfer"
       id="path-effect187"
       is_visible="true"
       lpeversion="1"
       nodesatellites_param="F,0,0,1,0,0,0,1 @ F,0,0,1,0,0,0,1 @ F,0,0,1,0,10.757927,0,1 @ F,0,0,1,0,23.538158,0,1 @ F,0,0,1,0,18.03584,0,1 @ F,0,0,1,0,0,0,1"
       radius="0"
       unit="px"
       method="auto"
       mode="F"
       chamfer_steps="1"
       flexible="false"
       use_knot_distance="true"
       apply_no_radius="true"
       apply_with_radius="true"
       only_selected="false"
       hide_knots="false" /><inkscape:path-effect
       effect="fill_between_many"
       method="bsplinespiro"
       autoreverse="false"
       close="false"
       join="false"
       linkedpaths="#path10,0,1"
       id="path-effect12" /><linearGradient
       inkscape:collect="always"
       xlink:href="#linearGradient10"
       id="linearGradient11"
       x1="44.480778"
       y1="38.632095"
       x2="44.942516"
       y2="63.873783"
       gradientUnits="userSpaceOnUse" /></defs><g
     inkscape:groupmode="layer"
     id="layer2"
     inkscape:label="linkedin"
     style="display:none"
     sodipodi:insensitive="true"><text
       xml:space="preserve"
       style="font-size:68.8775px;line-height:1.2;font-family:'JetBrainsMono Nerd Font Propo';-inkscape-font-specification:'JetBrainsMono Nerd Font Propo';text-align:end;writing-mode:lr-tb;direction:ltr;text-orientation:upright;text-anchor:end;fill:#1a1a1a;fill-opacity:1;stroke:none;stroke-width:9.99999;stroke-linecap:round;stroke-linejoin:round"
       x="68.202095"
       y="60.591171"
       id="text1"><tspan
         sodipodi:role="line"
         id="tspan1"
         style="font-style:normal;font-variant:normal;font-weight:900;font-stretch:normal;font-family:'Noto Sans';-inkscape-font-specification:'Noto Sans Heavy';fill:#1a1a1a;stroke:none;stroke-width:9.99999"
         x="68.202095"
         y="60.591171">in</tspan></text></g><g
     inkscape:groupmode="layer"
     id="layer5"
     inkscape:label="python"
     style="display:none"
     sodipodi:insensitive="true"><path
       id="rect7"
       style="fill:#59d3e0;fill-opacity:1;stroke:#1a1a1a;stroke-width:2.69643;stroke-linecap:round;stroke-linejoin:round;stroke-dasharray:none;stroke-opacity:1"
       d="M 15.012401,21.394391 H 26.447936 V 19.539769 H 15.925872 l 0,-4.789329 c 0,-1.898674 1.518412,-3.693978 3.4024,-3.928573 1.982587,-0.246873 4.58501,-0.506612 7.119664,-0.567614 2.530795,-0.06091 5.506829,0.19668 7.870457,0.472932 2.325626,0.27181 4.19897,2.483869 4.19897,4.825749 l 0,5.841457 v 3.77206 a 4.4439473,4.4439473 135 0 1 -4.443947,4.443947 H 22.042385 l -0.356949,9.255965 h -6.513561 c -1.82875,0 -3.595048,-1.455955 -3.856249,-3.265795 -0.264454,-1.832392 -0.523683,-4.119116 -0.513328,-5.99017 0.0096,-1.732307 0.232684,-3.602485 0.47157,-5.1203 0.27055,-1.718992 1.997859,-3.095707 3.738533,-3.095707 z"
       sodipodi:nodetypes="ccccczcccccczc"
       inkscape:path-effect="#path-effect7"
       inkscape:original-d="M 11.860631,21.394391 H 26.447936 V 19.539769 H 15.925872 v -8.227183 c 0,0 5.399436,-0.935046 10.522064,-1.058333 5.122628,-0.123288 12.069427,1.058333 12.069427,1.058333 v 10.081805 8.216007 H 22.042385 l -0.356949,9.255965 h -9.824805 c 0,0 -1.079251,-5.476159 -1.058333,-9.255965 0.02092,-3.779806 1.058333,-8.216007 1.058333,-8.216007 z"
       transform="matrix(1.4824722,0,0,1.4844095,-10.796624,-7.49628)" /><ellipse
       style="fill:#1a1a1a;fill-opacity:1;stroke:none;stroke-width:2;stroke-linecap:round;stroke-linejoin:round;stroke-opacity:1"
       id="path12"
       cx="21.375536"
       cy="14.879588"
       rx="2.2817132"
       ry="2.2846951" /><path
       id="path13"
       style="fill:#ffffff;fill-opacity:1;stroke:#1a1a1a;stroke-width:2.69643;stroke-linecap:round;stroke-linejoin:round;stroke-dasharray:none;stroke-opacity:1"
       d="M 15.012401,21.394391 H 26.447936 V 19.539769 H 15.925872 l 0,-4.789329 c 0,-1.898674 1.518412,-3.693978 3.4024,-3.928573 1.982587,-0.246873 4.58501,-0.506612 7.119664,-0.567614 2.530795,-0.06091 5.506829,0.19668 7.870457,0.472932 2.325626,0.27181 4.19897,2.483869 4.19897,4.825749 l 0,5.841457 v 3.77206 a 4.4439473,4.4439473 135 0 1 -4.443947,4.443947 h -12.38798 v 9.255965 h -6.513561 c -1.82875,0 -3.595048,-1.455955 -3.856249,-3.265795 -0.264454,-1.832392 -0.523683,-4.119116 -0.513328,-5.99017 0.0096,-1.732307 0.232684,-3.602485 0.47157,-5.1203 0.27055,-1.718992 1.997859,-3.095707 3.738533,-3.095707 z"
       sodipodi:nodetypes="ccccczcccccczc"
       inkscape:path-effect="#path-effect14"
       inkscape:original-d="M 11.860631,21.394391 H 26.447936 V 19.539769 H 15.925872 v -8.227183 c 0,0 5.399436,-0.935046 10.522064,-1.058333 5.122628,-0.123288 12.069427,1.058333 12.069427,1.058333 v 10.081805 8.216007 H 21.685436 v 9.255965 h -9.824805 c 0,0 -1.079251,-5.476159 -1.058333,-9.255965 0.02092,-3.779806 1.058333,-8.216007 1.058333,-8.216007 z"
       transform="matrix(-1.4824722,0,0,-1.4844095,78.529957,75.229614)" /><ellipse
       style="fill:#1a1a1a;fill-opacity:1;stroke:none;stroke-width:2;stroke-linecap:round;stroke-linejoin:round;stroke-opacity:1"
       id="circle14"
       cx="47.573975"
       cy="52.590782"
       rx="2.2817132"
       ry="2.2846951" /></g><g
     inkscape:groupmode="layer"
     id="layer6"
     inkscape:label="numpy"
     style="display:none"
     sodipodi:insensitive="true"><text
       xml:space="preserve"
       style="font-style:normal;font-variant:normal;font-weight:900;font-stretch:normal;font-size:41.1711px;line-height:1.2;font-family:'Noto Sans';-inkscape-font-specification:'Noto Sans Heavy';text-align:start;writing-mode:lr-tb;direction:ltr;text-orientation:upright;text-anchor:start;fill:#59d3e0;fill-opacity:1;stroke:none;stroke-width:2;stroke-linecap:round;stroke-linejoin:round;stroke-dasharray:none;stroke-opacity:1"
       x="-0.17167355"
       y="44.931385"
       id="text14"
       transform="skewY(34.372871)"><tspan
         sodipodi:role="line"
         id="tspan14"
         style="font-style:normal;font-variant:normal;font-weight:900;font-stretch:normal;font-family:'Noto Sans';-inkscape-font-specification:'Noto Sans Heavy';fill:#59d3e0;fill-opacity:1;stroke:none;stroke-width:2"
         x="-0.17167355"
         y="44.931385">N</tspan></text><g
       id="g18"
       transform="matrix(1.5813899,-0.69799283,0,1.5813899,-27.025462,10.959882)"
       style="fill:#ffffff;fill-opacity:1;stroke-width:0.632355"><rect
         style="opacity:1;fill:#ffffff;fill-opacity:1;stroke:none;stroke-width:1.26471;stroke-linecap:round;stroke-linejoin:round;stroke-dasharray:none;stroke-opacity:1"
         id="rect15"
         width="8.1573744"
         height="8.1573744"
         x="39.401661"
         y="33.552975" /><rect
         style="opacity:1;fill:#ffffff;fill-opacity:1;stroke:none;stroke-width:1.26471;stroke-linecap:round;stroke-linejoin:round;stroke-dasharray:none;stroke-opacity:1"
         id="rect16"
         width="8.1573744"
         height="8.1573744"
         x="49.867725"
         y="33.552975" /><rect
         style="opacity:1;fill:#ffffff;fill-opacity:1;stroke:none;stroke-width:1.26471;stroke-linecap:round;stroke-linejoin:round;stroke-dasharray:none;stroke-opacity:1"
         id="rect17"
         width="8.1573744"
         height="8.1573744"
         x="39.401661"
         y="44.019039" /><rect
         style="opacity:1;fill:#ffffff;fill-opacity:1;stroke:none;stroke-width:1.26471;stroke-linecap:round;stroke-linejoin:round;stroke-dasharray:none;stroke-opacity:1"
         id="rect18"
         width="8.1573744"
         height="8.1573744"
         x="49.867725"
         y="44.019039" /></g><g
       id="g22"
       transform="matrix(1.5160742,-0.67077171,1.5695087,0.95510624,-107.46285,8.4758056)"
       style="fill:#ffffff;fill-opacity:1;stroke-width:0.632355"><rect
         style="opacity:1;fill:#ffffff;fill-opacity:1;stroke:none;stroke-width:1.26471;stroke-linecap:round;stroke-linejoin:round;stroke-dasharray:none;stroke-opacity:1"
         id="rect19"
         width="8.1573744"
         height="8.1573744"
         x="39.401661"
         y="33.552975" /><rect
         style="opacity:1;fill:#ffffff;fill-opacity:1;stroke:none;stroke-width:1.26471;stroke-linecap:round;stroke-linejoin:round;stroke-dasharray:none;stroke-opacity:1"
         id="rect20"
         width="8.1573744"
         height="8.1573744"
         x="49.867725"
         y="33.552975" /><rect
         style="opacity:1;fill:#ffffff;fill-opacity:1;stroke:none;stroke-width:1.26471;stroke-linecap:round;stroke-linejoin:round;stroke-dasharray:none;stroke-opacity:1"
         id="rect21"
         width="8.1573744"
         height="8.1573744"
         x="39.401661"
         y="44.019039" /><rect
         style="opacity:1;fill:#ffffff;fill-opacity:1;stroke:none;stroke-width:1.26471;stroke-linecap:round;stroke-linejoin:round;stroke-dasharray:none;stroke-opacity:1"
         id="rect22"
         width="8.1573744"
         height="8.1573744"
         x="49.867725"
         y="44.019039" /></g></g><g
     inkscape:groupmode="layer"
     id="layer7"
     inkscape:label="pandas"
     style="display:none"
     sodipodi:insensitive="true"><rect
       style="opacity:1;fill:#ffffff;fill-opacity:1;stroke:none;stroke-width:2.00001;stroke-linecap:round;stroke-linejoin:round;stroke-dasharray:none;stroke-opacity:1"
       id="rect23"
       width="11.85128"
       height="46.789467"
       x="1.2884688"
       y="18.469528"
       ry="2.1762543" /><rect
       style="opacity:1;fill:#ffffff;fill-opacity:1;stroke:none;stroke-width:2.00001;stroke-linecap:round;stroke-linejoin:round;stroke-dasharray:none;stroke-opacity:1"
       id="rect27"
       width="11.85128"
       height="47.712944"
       x="54.619965"
       y="2.6165164"
       ry="2.2192066" /><rect
       style="fill:#ffffff;fill-opacity:1;stroke:none;stroke-width:2.00001;stroke-linecap:round;stroke-linejoin:round;stroke-dasharray:none;stroke-opacity:1"
       id="rect25"
       width="11.85128"
       height="47.712944"
       x="19.065634"
       y="2.6165164"
       ry="2.2192066" /><rect
       style="fill:#59d3e0;fill-opacity:1;stroke:#1a1a1a;stroke-width:4;stroke-linecap:round;stroke-linejoin:round;stroke-dasharray:none;stroke-opacity:1"
       id="rect28"
       width="16.776487"
       height="16.776487"
       x="16.603031"
       y="21.086044"
       ry="2.4626033" /><rect
       style="fill:#ffffff;fill-opacity:1;stroke:none;stroke-width:2.00001;stroke-linecap:round;stroke-linejoin:round;stroke-dasharray:none;stroke-opacity:1"
       id="rect26"
       width="11.85128"
       height="46.789467"
       x="36.8428"
       y="18.469528"
       ry="2.1762543" /><rect
       style="fill:#59d3e0;fill-opacity:1;stroke:#1a1a1a;stroke-width:4;stroke-linecap:round;stroke-linejoin:round;stroke-dasharray:none;stroke-opacity:1"
       id="rect29"
       width="16.776487"
       height="16.776487"
       x="34.380196"
       y="31.244284"
       ry="2.4626033" /></g><g
     inkscape:groupmode="layer"
     id="layer8"
     inkscape:label="sql"
     style="display:none"
     sodipodi:insensitive="true"><path
       id="path32"
       style="opacity:1;fill:#59d3e0;fill-opacity:1;stroke:#1a1a1a;stroke-width:4;stroke-linecap:round;stroke-linejoin:round;stroke-dasharray:none;stroke-opacity:1"
       d="M 33.866667,34.540844 C 18.948444,34.54092 6.8550524,38.572205 6.8553957,43.544946 V 57.79989 c -3.416e-4,4.972741 12.0930503,9.004025 27.0112713,9.004101 14.918423,1.9e-5 27.011788,-4.031293 27.011788,-9.004101 V 43.548047 c 0,-3.787168 -8.942094,-9.007226 -27.011788,-9.007203 z"
       sodipodi:nodetypes="ccccscc" /><path
       id="path31"
       style="opacity:1;fill:#ffffff;fill-opacity:1;stroke:#1a1a1a;stroke-width:4;stroke-linecap:round;stroke-linejoin:round;stroke-dasharray:none;stroke-opacity:1"
       d="m 33.866667,18.072182 c -14.918223,7.6e-5 -27.0116146,4.031361 -27.0112713,9.004102 v 14.254944 c -3.416e-4,4.972741 12.0930503,9.004025 27.0112713,9.004101 14.918423,1.9e-5 27.011788,-4.031293 27.011788,-9.004101 V 27.079385 c 0,-3.787168 -8.942094,-9.007226 -27.011788,-9.007203 z"
       sodipodi:nodetypes="ccccscc" /><path
       id="path30"
       style="opacity:1;fill:#59d3e0;fill-opacity:1;stroke:#1a1a1a;stroke-width:4;stroke-linecap:round;stroke-linejoin:round;stroke-dasharray:none;stroke-opacity:1"
       d="M 33.866667,1.6035197 C 18.948444,1.6035957 6.8550524,5.6348807 6.8553957,10.607622 v 14.254944 c -3.416e-4,4.972741 12.0930503,9.004025 27.0112713,9.004101 14.918423,1.9e-5 27.011788,-4.031293 27.011788,-9.004101 V 10.610723 c 0,-3.7871683 -8.942094,-9.0072263 -27.011788,-9.0072033 z"
       sodipodi:nodetypes="ccccscc" /><ellipse
       style="opacity:1;fill:#1a1a1a;fill-opacity:1;stroke:none;stroke-width:2;stroke-linecap:round;stroke-linejoin:round;stroke-dasharray:none;stroke-opacity:1"
       id="path33"
       cx="34.014713"
       cy="12.168998"
       rx="23.394735"
       ry="7.1954203" /><circle
       style="opacity:1;fill:#1a1a1a;fill-opacity:1;stroke:none;stroke-width:2;stroke-linecap:round;stroke-linejoin:round;stroke-dasharray:none;stroke-opacity:1"
       id="path34"
       cx="12.6978"
       cy="20.547348"
       r="2.0778217" /><circle
       style="opacity:1;fill:#1a1a1a;fill-opacity:1;stroke:none;stroke-width:2;stroke-linecap:round;stroke-linejoin:round;stroke-dasharray:none;stroke-opacity:1"
       id="circle34"
       cx="12.6978"
       cy="38.247314"
       r="2.0778217" /><circle
       style="opacity:1;fill:#1a1a1a;fill-opacity:1;stroke:none;stroke-width:2;stroke-linecap:round;stroke-linejoin:round;stroke-dasharray:none;stroke-opacity:1"
       id="circle35"
       cx="12.6978"
       cy="54.562065"
       r="2.0778217" /><path
       id="path35"
       style="opacity:1;fill:#59d3e0;fill-opacity:1;stroke:#1a1a1a;stroke-width:4;stroke-linecap:round;stroke-linejoin:round;stroke-dasharray:none;stroke-opacity:1"
       d="m 49.277987,39.360263 c -5.180528,1.68e-4 -9.545569,4.341146 -10.232334,9.193085 -4.981068,-0.79528 -8.699692,3.243916 -8.699808,7.469743 10e-6,4.961331 4.027011,8.983284 8.99457,8.983294 1.580585,2.5e-5 18.037561,1.4e-5 19.51275,0 4.366567,-6.2e-5 7.906354,-3.53541 7.906419,-7.896503 6.6e-5,-3.186578 -2.917985,-5.599189 -5.708642,-5.36401 1.555645,-7.066207 -4.362598,-12.616467 -11.772955,-12.385609 z"
       sodipodi:nodetypes="cccccscc" /></g><g
     inkscape:groupmode="layer"
     id="layer3"
     inkscape:label="github"
     style="display:inline"><g
       id="g19"
       transform="translate(-88.038079,32.321672)"><path
         id="path16"
         style="fill:#ff8181;fill-opacity:1;stroke:none;stroke-width:0.499998;stroke-opacity:0.4"
         d="M 110.65465,6.4302625 A 20.243878,7.6076654 0 0 0 90.410197,14.038145 v 9.922843 a 20.243878,7.6076654 0 0 0 20.244453,7.607882 20.243878,7.6076654 0 0 0 20.24372,-7.607882 V 14.038145 A 20.243878,7.6076654 0 0 0 110.65465,6.4302625 Z" /><ellipse
         style="fill:#000000;fill-opacity:0.3;stroke:none;stroke-width:0.499997;stroke-opacity:0.4"
         id="ellipse16"
         cx="110.65408"
         cy="13.197906"
         rx="19.89572"
         ry="6.8418589" /><ellipse
         style="fill:#000000;fill-opacity:0.5;stroke:none;stroke-width:0.499998;stroke-opacity:0.4"
         id="ellipse17"
         cx="110.65408"
         cy="12.332329"
         rx="16.50964"
         ry="4.9179497" /><path
         id="path17"
         style="fill:#000000;fill-opacity:0.5;stroke:none;stroke-width:0.499998;stroke-opacity:0.4"
         d="M 110.65402,9.0020345 A 16.50964,4.9179497 0 0 0 94.386797,13.125814 16.50964,4.9179497 0 0 0 110.65402,17.25011 16.50964,4.9179497 0 0 0 126.92124,13.125814 16.50964,4.9179497 0 0 0 110.65402,9.0020345 Z" /></g><rect
       style="fill:#8ecae6;fill-opacity:1;stroke:none;stroke-width:0.799999;stroke-linecap:round;stroke-linejoin:round"
       id="rect1"
       width="13.967888"
       height="14.053778"
       x="-16.771837"
       y="2.7009721"
       ry="0" /><rect
       style="fill:#219ebc;fill-opacity:1;stroke:none;stroke-width:0.799999;stroke-linecap:round;stroke-linejoin:round"
       id="rect2"
       width="13.967888"
       height="14.053778"
       x="-16.771837"
       y="16.754749"
       ry="0" /><rect
       style="fill:#88f8af;fill-opacity:1;stroke:none;stroke-width:0.799999;stroke-linecap:round;stroke-linejoin:round"
       id="rect3"
       width="13.967888"
       height="14.053778"
       x="-16.771837"
       y="30.808527"
       ry="0" /><rect
       style="fill:#ffd367;fill-opacity:1;stroke:none;stroke-width:0.799999;stroke-linecap:round;stroke-linejoin:round"
       id="rect4"
       width="13.967888"
       height="14.053778"
       x="-16.771837"
       y="44.862305"
       ry="0" /><rect
       style="fill:#ff8181;fill-opacity:1;stroke:none;stroke-width:0.799999;stroke-linecap:round;stroke-linejoin:round"
       id="rect5"
       width="13.967888"
       height="14.053778"
       x="-16.771837"
       y="58.916084"
       ry="0" /><g
       id="g17"
       transform="translate(-45.250341,15.367086)"><path
         id="path14"
         style="fill:#ffd367;fill-opacity:1;stroke:none;stroke-width:0.499998;stroke-opacity:0.4"
         d="M 67.405177,6.4302625 A 20.243878,7.6076654 0 0 0 47.160721,14.038145 v 9.922843 A 20.243878,7.6076654 0 0 0 67.405177,31.56887 20.243878,7.6076654 0 0 0 87.648895,23.960988 V 14.038145 A 20.243878,7.6076654 0 0 0 67.405177,6.4302625 Z" /><ellipse
         style="fill:#000000;fill-opacity:0.3;stroke:none;stroke-width:0.499997;stroke-opacity:0.4"
         id="ellipse14"
         cx="67.404602"
         cy="13.197906"
         rx="19.89572"
         ry="6.8418589" /><ellipse
         style="fill:#000000;fill-opacity:0.5;stroke:none;stroke-width:0.499998;stroke-opacity:0.4"
         id="ellipse15"
         cx="67.404602"
         cy="12.332329"
         rx="16.50964"
         ry="4.9179497" /><path
         id="path15"
         style="fill:#000000;fill-opacity:0.5;stroke:none;stroke-width:0.499998;stroke-opacity:0.4"
         d="M 67.404544,9.0020345 A 16.50964,4.9179497 0 0 0 51.137321,13.125814 16.50964,4.9179497 0 0 0 67.404544,17.25011 16.50964,4.9179497 0 0 0 83.671768,13.125814 16.50964,4.9179497 0 0 0 67.404544,9.0020345 Z" /></g><g
       id="g15"
       transform="translate(0,-1.5875)"><path
         id="path1"
         style="fill:#f9f9f9;stroke:none;stroke-width:0.499998;stroke-opacity:0.4"
         d="M 22.154836,6.4302625 A 20.243878,7.6076654 0 0 0 1.9103795,14.038145 v 9.922843 A 20.243878,7.6076654 0 0 0 22.154836,31.56887 20.243878,7.6076654 0 0 0 42.398554,23.960988 V 14.038145 A 20.243878,7.6076654 0 0 0 22.154836,6.4302625 Z" /><ellipse
         style="fill:#000000;fill-opacity:0.3;stroke:none;stroke-width:0.499997;stroke-opacity:0.4"
         id="ellipse8"
         cx="22.154257"
         cy="13.197906"
         rx="19.89572"
         ry="6.8418589" /><ellipse
         style="fill:#000000;fill-opacity:0.5;stroke:none;stroke-width:0.499998;stroke-opacity:0.4"
         id="ellipse2"
         cx="22.154259"
         cy="12.332329"
         rx="16.50964"
         ry="4.9179497" /><path
         id="ellipse9"
         style="fill:#000000;fill-opacity:0.5;stroke:none;stroke-width:0.499998;stroke-opacity:0.4"
         d="M 22.154203,9.0020345 A 16.50964,4.9179497 0 0 0 5.8869792,13.125814 16.50964,4.9179497 0 0 0 22.154203,17.25011 16.50964,4.9179497 0 0 0 38.421427,13.125814 16.50964,4.9179497 0 0 0 22.154203,9.0020345 Z" /></g><g
       id="g21"><circle
         style="fill:#000000;fill-opacity:1;stroke:none;stroke-width:1;stroke-dasharray:none;stroke-opacity:1"
         id="path19"
         cx="7.9265056"
         cy="21.778652"
         r="2.0778217" /><path
         style="fill:none;fill-opacity:1;stroke:#000000;stroke-width:1;stroke-linecap:round;stroke-dasharray:none;stroke-opacity:1"
         d="m 12.005192,22.317345 c 7.307569,2.948731 15.265214,2.908277 22.62517,0"
         id="path20"
         sodipodi:nodetypes="cc" /></g><g
       id="g23"
       transform="translate(0,17.007356)"><circle
         style="fill:#000000;fill-opacity:1;stroke:none;stroke-width:1;stroke-dasharray:none;stroke-opacity:1"
         id="circle21"
         cx="7.9265056"
         cy="21.778652"
         r="2.0778217" /><path
         style="fill:none;fill-opacity:1;stroke:#000000;stroke-width:1;stroke-linecap:round;stroke-dasharray:none;stroke-opacity:1"
         d="m 12.005192,22.317345 c 7.307569,2.948731 15.265214,2.908277 22.62517,0"
         id="path21"
         sodipodi:nodetypes="cc" /></g><g
       id="g24"
       transform="translate(0,34.168625)"><circle
         style="fill:#000000;fill-opacity:1;stroke:none;stroke-width:1;stroke-dasharray:none;stroke-opacity:1"
         id="circle23"
         cx="7.9265056"
         cy="21.778652"
         r="2.0778217" /><path
         style="fill:none;fill-opacity:1;stroke:#000000;stroke-width:1;stroke-linecap:round;stroke-dasharray:none;stroke-opacity:1"
         d="m 12.005192,22.317345 c 7.307569,2.948731 15.265214,2.908277 22.62517,0"
         id="path23"
         sodipodi:nodetypes="cc" /></g><path
       id="path7"
       style="fill:url(#linearGradient11);fill-opacity:1;stroke:none;stroke-width:1;stroke-opacity:1;stroke-dasharray:none"
       d="M 44.287219 38.557336 A 13.099045 13.099045 0 0 0 33.653243 44.00765 A 10.383389 10.383389 0 0 0 33.025374 43.988529 A 10.383389 10.383389 0 0 0 22.642029 54.371875 A 10.383389 10.383389 0 0 0 33.025374 64.755221 A 10.383389 10.383389 0 0 0 38.308256 63.311381 A 13.099045 13.099045 0 0 0 44.287219 64.755221 A 13.099045 13.099045 0 0 0 52.8283 61.587972 A 7.1086278 7.1086278 0 0 0 58.744218 64.755737 A 7.1086278 7.1086278 0 0 0 65.852828 57.646611 A 7.1086278 7.1086278 0 0 0 58.744218 50.538 A 7.1086278 7.1086278 0 0 0 57.349988 50.676493 A 13.099045 13.099045 0 0 0 44.287219 38.557336 z " /></g><g
     inkscape:groupmode="layer"
     id="layer4"
     inkscape:label="mail"
     style="display:none"
     sodipodi:insensitive="true"><g
       id="g10"
       transform="matrix(1.1774157,0,0,1.1774157,-6.0084785,-7.390746)"
       style="stroke-width:0.849318"><rect
         style="fill:#1a1a1a;fill-opacity:1;stroke:none;stroke-width:4.24658;stroke-linecap:round;stroke-linejoin:round;stroke-dasharray:none;stroke-opacity:1"
         id="rect8"
         width="51.914032"
         height="32.084206"
         x="7.9096508"
         y="17.824564"
         ry="6.4594316" /><path
         style="fill:#1a1a1a;fill-opacity:1;stroke:#ffffff;stroke-width:2.54795;stroke-linecap:round;stroke-linejoin:round;stroke-dasharray:none;stroke-opacity:1"
         d="m 12.059982,51.017049 c 0,0 12.003682,-20.071229 21.91809,-20.143868 8.156834,-0.05976 23.111798,19.345107 23.111798,19.345107"
         id="path10"
         sodipodi:nodetypes="csc" /><path
         style="fill:#1a1a1a;fill-opacity:1;stroke:#ffffff;stroke-width:2.54795;stroke-linecap:round;stroke-linejoin:round;stroke-dasharray:none;stroke-opacity:1"
         d="m 12.059982,19.064253 c 0,0 12.003682,20.071229 21.91809,20.143868 8.156834,0.05976 23.111798,-19.345107 23.111798,-19.345107"
         id="path9"
         sodipodi:nodetypes="csc" /></g></g></svg>
