<?xml version="1.0" encoding="UTF-8" standalone="no"?>
<!-- Created with Inkscape (http://www.inkscape.org/) -->

<svg
   width="32"
   height="32"
   viewBox="0 0 8.4666667 8.466672"
   version="1.1"
   id="svg1"
   inkscape:version="1.4.3 (0d15f75042, 2025-12-25)"
   sodipodi:docname="favicon.svg"
   xmlns:inkscape="http://www.inkscape.org/namespaces/inkscape"
   xmlns:sodipodi="http://sodipodi.sourceforge.net/DTD/sodipodi-0.dtd"
   xmlns="http://www.w3.org/2000/svg"
   xmlns:svg="http://www.w3.org/2000/svg">
  <sodipodi:namedview
     id="namedview1"
     pagecolor="#000000"
     bordercolor="#ffffff"
     borderopacity="0.24705882"
     inkscape:showpageshadow="2"
     inkscape:pageopacity="0.0"
     inkscape:pagecheckerboard="0"
     inkscape:deskcolor="#d1d1d1"
     inkscape:document-units="mm"
     inkscape:zoom="17.84375"
     inkscape:cx="12.917688"
     inkscape:cy="15.887916"
     inkscape:window-width="1536"
     inkscape:window-height="779"
     inkscape:window-x="0"
     inkscape:window-y="0"
     inkscape:window-maximized="1"
     inkscape:current-layer="layer1"
     showguides="false" />
  <defs
     id="defs1">
    <inkscape:path-effect
       effect="powerstroke"
       message=""
       id="path-effect4"
       is_visible="true"
       lpeversion="1.3"
       scale_width="1"
       interpolator_type="CentripetalCatmullRom"
       interpolator_beta="0.2"
       start_linecap_type="zerowidth"
       end_linecap_type="zerowidth"
       offset_points="0.17020402,1.0280988 | 1.4965963,0.13903559 | 2.8460811,1.1221478"
       linejoin_type="round"
       miter_limit="4"
       not_jump="false"
       sort_points="true" />
    <inkscape:path-effect
       effect="powerstroke"
       message=""
       id="path-effect3"
       is_visible="true"
       lpeversion="1.3"
       scale_width="1"
       interpolator_type="CentripetalCatmullRom"
       interpolator_beta="0.2"
       start_linecap_type="zerowidth"
       end_linecap_type="zerowidth"
       offset_points="0.21148699,0.73535325 | 1.0514377,0.084476744 | 1.7940246,0.77034332"
       linejoin_type="round"
       miter_limit="4"
       not_jump="false"
       sort_points="true" />
    <inkscape:path-effect
       effect="fillet_chamfer"
       id="path-effect2"
       is_visible="true"
       lpeversion="1"
       nodesatellites_param="F,0,0,1,0,0,0,1 @ F,0,0,1,0,0,0,1 @ F,0,0,1,0,0,0,1 @ F,0,0,1,0,0,0,1"
       radius="0"
       unit="px"
       method="auto"
       mode="F"
       chamfer_steps="1"
       flexible="false"
       use_knot_distance="true"
       apply_no_radius="true"
       apply_with_radius="true"
       only_selected="false"
       hide_knots="false" />
    <inkscape:path-effect
       effect="fillet_chamfer"
       id="path-effect1"
       is_visible="true"
       lpeversion="1"
       nodesatellites_param="F,0,0,1,0,0,0,1 @ F,0,0,1,0,0,0,1 @ F,0,0,1,0,6.2557735,0,1 @ F,0,0,1,0,0,0,1 @ F,0,0,1,0,0,0,1 @ F,0,0,1,0,0,0,1 @ F,0,0,1,0,0,0,1"
       radius="0"
       unit="px"
       method="auto"
       mode="F"
       chamfer_steps="1"
       flexible="false"
       use_knot_distance="true"
       apply_no_radius="true"
       apply_with_radius="true"
       only_selected="false"
       hide_knots="false" />
  </defs>
  <g
     inkscape:label="Layer 1"
     inkscape:groupmode="layer"
     id="layer1">
    <path
       style="fill:#9580ff;fill-opacity:1;fill-rule:nonzero;stroke:none;stroke-width:0.8;stroke-linecap:round;stroke-linejoin:round;stroke-dasharray:none"
       d="M 0.74138938,8.4518388 C 0.87536143,8.4592626 1.3438755,8.3782815 1.5439611,7.5880884 1.5677513,7.4941344 1.5881185,7.3873971 1.6060864,7.266704 1.6958607,6.6636768 1.7247692,5.6711393 1.8150943,4.5280801 1.8536107,4.0406566 1.9029617,3.5360433 1.9714718,3.0521281 2.0379649,2.5824596 2.1214496,2.1399932 2.227943,1.756872 2.2810832,1.5656948 2.339479,1.3910137 2.4036545,1.2357921 2.4686373,1.078618 2.5390176,0.94267729 2.6150988,0.82995146 2.6928277,0.7147844 2.7760443,0.6245352 2.8648906,0.56043719 2.9566285,0.49425298 3.0551827,0.45539607 3.1604179,0.44673997 c 0.090726,-0.007463 0.184724,0.007651 0.2792402,0.0430745 0.02068,0.00775 0.041516,0.0165313 0.062494,0.02634 0.1165708,0.0545065 0.2357014,0.13987645 0.3559263,0.25405217 C 4.0913269,0.9917193 4.3213024,1.3143725 4.5454632,1.7106874 4.7666112,2.1016755 4.9778366,2.5567201 5.1769156,3.0398689 5.3810606,3.5353127 5.5696791,4.0535234 5.7418133,4.5547414 6.1397042,5.7133149 6.4330231,6.7297328 6.6898907,7.3343892 6.7476702,7.4704 6.8041305,7.587502 6.8612955,7.6867519 7.2682948,8.3933843 7.7710336,8.3346908 7.9032107,8.2887332 8.0280984,8.2453102 8.4767899,7.9672667 8.3014957,7.1394507 8.2770421,7.0239699 8.2391399,6.8949368 8.1880479,6.751251 7.9607562,6.11204 7.4595059,5.1393256 6.7978389,4.0557113 6.5119931,3.5875807 6.1983924,3.1060098 5.8745242,2.6518655 5.5577943,2.207731 5.2346137,1.7945232 4.9168408,1.4416507 4.5946724,1.0838971 4.2863791,0.79733787 3.9980109,0.59711335 3.8495209,0.49401132 3.7073718,0.41445856 3.5706257,0.35875246 3.5459292,0.34869189 3.5213923,0.33940351 3.4970068,0.33089176 3.3862963,0.29224817 3.2726252,0.26764334 3.1562195,0.26499386 3.0198073,0.26188888 2.8840237,0.28886634 2.747895,0.34814614 2.6166912,0.4052813 2.4881028,0.49117984 2.3621466,0.60367429 2.2390996,0.71357051 2.1194083,0.8480991 2.0032019,1.0040325 1.8884292,1.1580419 1.7774828,1.3323591 1.6705165,1.523269 1.4563881,1.9054386 1.2601539,2.3506561 1.0835278,2.8228558 0.90176381,3.3087913 0.74165988,3.8209919 0.60649136,4.3137741 0.28869855,5.4723474 0.10657597,6.488334 0.07768686,7.1197879 0.07190885,7.2460827 0.07226584,7.3588938 0.07893892,7.458908 0.13543731,8.30569 0.61661638,8.4449247 0.74138938,8.4518388 Z"
       id="path1"
       sodipodi:nodetypes="czc"
       inkscape:path-effect="#path-effect3"
       inkscape:original-d="m 0.74138938,8.4518388 c 0,0 0.44609942,-8.05044136 2.41692942,-8.0959719 1.9708299,-0.0455305 4.7448919,7.9328663 4.7448919,7.9328663"
       transform="translate(0.02198494,-0.08840059)" />
    <path
       style="fill:#9580ff;fill-opacity:1;fill-rule:nonzero;stroke:none;stroke-width:2.52902;stroke-linecap:round;stroke-linejoin:round;stroke-dasharray:none"
       d="M 1.7319846,3.579234 C 1.8252859,3.7167579 2.2131991,4.238888 2.739407,4.1482243 2.8797205,4.1240488 3.046301,4.0598774 3.2552489,3.9530969 3.7450086,3.7028106 4.3786551,3.2701317 5.2635666,2.7189169 5.6143423,2.5004173 5.9840517,2.277031 6.3508623,2.0726505 6.6975719,1.87947 7.0300103,1.7098153 7.3347466,1.5778148 7.4817068,1.514157 7.6167089,1.4616518 7.7403849,1.419655 c 0.122607,-0.041634 0.2265871,-0.070403 0.3162015,-0.090507 0.086663,-0.019441 0.1564624,-0.029901 0.2064198,-0.036223 0.046313,-0.00586 0.091446,-0.01096 0.1256937,-0.00501 0.054423,0.040472 0.097141,0.0784 0.1304109,0.1129236 0.033054,0.0343 0.059206,0.067721 0.078906,0.1007237 0.039068,0.06545 0.062664,0.1462161 0.05029,0.259078 C 8.635669,1.8759112 8.586161,2.0133779 8.4931271,2.1695395 8.3995722,2.3265755 8.2680635,2.492526 8.1038411,2.6642499 7.7658974,3.0176304 7.3059755,3.3785736 6.7931203,3.730165 6.2688456,4.0895852 5.6835516,4.4430475 5.1171351,4.7674977 c -1.413e-4,8.1e-5 -0.04957,0.028346 -0.049711,0.028427 C 4.4550326,5.1455332 3.8819711,5.4528232 3.2405951,5.8079566 2.6693138,6.1242782 2.0961634,6.4504558 1.6118777,6.7691144 1.375117,6.9249023 1.1518717,7.0838605 0.95433578,7.2448725 0.76028396,7.4030445 0.58163697,7.5707516 0.43660195,7.748437 0.29318387,7.9241416 0.16998624,8.1248505 0.10380547,8.3532315 0.07047208,8.4682609 0.05170652,8.590063 0.05236103,8.7175424 c 6.5526e-4,0.1276239 0.02076901,0.256028 0.06090615,0.3833708 0.0792082,0.2523539 0.20803687,0.4800803 0.39355488,0.6718509 0.18592829,0.1921948 0.41103917,0.3298389 0.65535704,0.4221439 0.2436662,0.09206 0.5032936,0.138023 0.7626816,0.153135 0.2630509,0.01532 0.5348375,-5.32e-4 0.806152,-0.03742 C 3.287554,10.234968 3.8745985,10.066295 4.4408031,9.8583777 5.0442178,9.6367965 5.6472561,9.3619891 6.1999829,9.081643 7.5177901,8.4132438 8.6305295,7.6783943 9.2194718,7.2099352 9.5632831,6.9364594 9.7845781,6.7140754 9.9078925,6.5265073 10.282789,5.9562695 9.8488098,5.3703117 9.7413729,5.2361252 9.6311614,5.0984734 9.1661706,4.5542866 8.5505347,4.7392069 8.3439265,4.8012664 8.0870237,4.9405442 7.7383269,5.1696834 7.107768,5.5840426 6.1563003,6.3176484 5.0286877,7.0853391 4.5580408,7.4057605 4.0664198,7.7238183 3.5869133,8.0003745 3.1315161,8.2630257 2.7077635,8.4762176 2.3329188,8.6216017 2.1525014,8.6915769 1.993681,8.7418433 1.8542629,8.7757006 1.7173737,8.8089437 1.6074541,8.8243209 1.5212063,8.8297408 1.4406412,8.8348035 1.3692465,8.8323195 1.3131536,8.8168342 1.2519134,8.7999278 1.1856773,8.7631436 1.1188847,8.672334 1.0970048,8.6528932 1.0778926,8.6334295 1.0631808,8.6109155 1.0480984,8.5878344 1.0358847,8.5589777 1.030273,8.5204715 1.0187335,8.4412899 1.0367796,8.3299304 1.1020573,8.1885174 1.1673204,8.0471365 1.2727916,7.8906471 1.415695,7.7234507 1.5598682,7.5547685 1.737237,7.3807974 1.9404512,7.2040165 2.3587188,6.8401556 2.8780305,6.4716674 3.4256562,6.1163913 4.0017792,5.7426273 4.6294563,5.3707115 5.206088,5.0372534 5.2063173,5.0371207 5.2555348,5.0086813 5.2557641,5.0085487 5.8075289,4.6899635 6.43541,4.3356657 6.974082,4.0120267 7.5097342,3.6902021 8.0259211,3.3586964 8.4365693,3.0297111 8.6374351,2.8687901 8.8213411,2.7019954 8.9740475,2.5296421 9.1242993,2.3600592 9.254127,2.1742555 9.3379194,1.9704171 9.4225514,1.7645362 9.4613774,1.5367907 9.4236861,1.2933436 9.4051255,1.1734613 9.368762,1.0551888 9.3152816,0.93964469 9.2619828,0.8244927 9.1925632,0.71392155 9.1090393,0.60813494 8.9930224,0.45007925 8.8430887,0.32667642 8.673356,0.23435903 8.5049252,0.14274975 8.3208689,0.08370542 8.1346802,0.04758698 7.9466811,0.01111736 7.7501076,-0.00324857 7.5524151,-0.00208191 7.3515812,-8.966545e-4 7.1446125,0.01635102 6.9365625,0.04515668 6.5087067,0.10439574 6.0616158,0.21459174 5.6297813,0.3474916 5.169646,0.48910122 4.7140152,0.66046443 4.2984834,0.83471506 3.2966355,1.2548337 2.486265,1.7040228 2.0569455,2.0180081 1.8557424,2.1651591 1.7163584,2.2960194 1.6291246,2.4175534 1.2970438,2.8802076 1.6404323,3.444288 1.7319846,3.579234 Z"
       id="path2"
       sodipodi:nodetypes="cssc"
       inkscape:path-effect="#path-effect2;#path-effect4"
       inkscape:original-d="m 1.7319846,3.579234 c 0,0 5.7918134,-3.92937867 7.016885,-2.63120977 C 10.95946,3.2905152 -0.3830938,6.5421737 0.61607593,8.8866236 1.7777049,11.612268 9.7413729,5.2361252 9.7413729,5.2361252"
       transform="matrix(0.31632741,0,0,0.31632741,1.8991916,2.6238979)" />
  </g>
</svg>
